<svg viewBox="-100 -100 640 640" height="32px" width="32px" xmlns="http://www.w3.org/2000/svg"><defs></defs><path fill="#3F5C71" fill-rule="nonzero" d="M220 289.610492l192.102863-85.37905c9.813304-4.361468 21.304227.058118 25.665695 9.871421 4.361468 9.813304-.058118 21.304227-9.871421 25.665695L220 332.167285l-207.347265-92.15434C5.29642357 236.743474.55555556 229.448406.55555556 221.398266V112.092358c0-8.416056 4.95636202-16.0427179 12.64705114-19.4608019L220 .72160352 425.993363 92.2742092c10.280603 4.5691572 14.910646 16.6072668 10.341488 26.8878708-2.048195 4.60844-5.733048 8.293293-10.341488 10.341489L220 221.056174l-107.897137-47.954283c-9.813303-4.361468-14.2328891-15.852391-9.871421-25.665695 4.361468-9.813303 15.852391-14.232889 25.665695-9.871421L220 178.499381l152.123608-67.610492L220 43.2783965 39.4444444 123.52531v85.838269L220 289.610492zM27.8971368 315.342553L220 400.721604l192.102863-85.379051c9.813304-4.361468 21.304227.058118 25.665695 9.871421 4.361468 9.813304-.058118 21.304227-9.871421 25.665695L220 443.278396 12.1028632 350.879669c-9.81330359-4.361468-14.23288933-15.852391-9.87142109-25.665695 4.36146824-9.813303 15.85239119-14.232889 25.66569469-9.871421z"></path></svg>