<svg width="100" height="100" viewBox="0 0 100 100" fill="none" xmlns="http://www.w3.org/2000/svg">
<ellipse cx="50.5" cy="87" rx="22.5" ry="8" fill="#3E3E3E"/>
<path d="M35.8139 6.11591L67.8139 13.1057C71.7173 13.9584 74.5 17.4145 74.5 21.41V75.5799C74.5 81.0052 69.4864 85.0418 64.1861 83.8841L32.1861 76.8942C28.2827 76.0416 25.5 72.5855 25.5 68.59V14.4201C25.5 8.99484 30.5136 4.95815 35.8139 6.11591Z" fill="#008D54" stroke="#00CC79" stroke-width="3"/>
<path d="M60.5991 34.5345C59.3434 34.5043 58.0272 34.8968 56.6051 34.8968C55.183 34.8968 40.9924 30.5195 32.5204 30.5195C24.0484 30.5195 24.6838 29.5534 16.9683 30.7006C9.25269 31.8477 5.98492 33.4779 6.00005 36.0439C6.01518 38.6099 15.7882 31.3949 27.4372 43.7118C39.0862 56.0286 40.1452 58.3682 41.3555 59.1984C42.5658 60.0285 44.9259 60.3455 44.9107 60.7229C44.8956 61.1002 21.6985 70 21.6985 70C21.6985 70 45.2587 61.2965 46.5446 60.9644C47.8306 60.6323 53.2693 60.104 55.7277 60.1946C58.1861 60.2851 65.652 58.5342 65.652 58.5342C65.652 58.5342 70.4932 59.6512 73.4886 61.1153C76.4841 62.5795 77.8154 66.1568 78.6172 66.1417C79.419 66.1266 76.7867 57.6135 76.8472 55.7418C76.9077 53.8701 79.4493 50.5645 79.4493 50.5645C79.4493 50.5645 95.7125 38.5647 93.8517 38.4137C91.9909 38.2628 89.298 40.5118 88.2239 40.9344C87.1497 41.3571 84.2148 40.7684 82.2632 40.3005C80.3116 39.8326 78.4205 38.2477 78.4962 37.4779C78.5718 36.7081 82.6112 35.4854 84.3509 33.81C86.0907 32.1345 89.6459 29.3421 88.7231 28.2855C87.8003 27.2289 85.3494 29.3874 84.1618 30.1723C82.9742 30.9572 80.9773 31.9836 79.4493 32.0591C77.9213 32.1346 77.1497 31.4553 74.2451 31.576C71.3404 31.6968 71.0075 32.4817 70.3268 32.7232C69.646 32.9647 67.8003 31.9232 66.1513 32.5874C64.5023 33.2515 64.8805 34.6704 63.8366 35.0628C62.7927 35.4553 61.8548 34.5647 60.5991 34.5345Z" fill="#00BACE" stroke="#00BACE"/>
</svg>
