<svg width="100" height="100" viewBox="0 0 100 100" fill="none" xmlns="http://www.w3.org/2000/svg">
<ellipse cx="49.5" cy="89" rx="39.5" ry="8" fill="#3E3E3E"/>
<rect x="15.5" y="57.2901" width="17.1605" height="30.3086" rx="8.58025" fill="#008D54" stroke="#00CC79" stroke-width="3"/>
<rect x="15.5" y="34.5" width="17.1605" height="18.037" rx="8.58025" fill="#008D54" stroke="#00CC79" stroke-width="3"/>
<rect x="40.9198" y="57.2901" width="17.1605" height="30.3086" rx="8.58025" fill="#008D54" stroke="#00CC79" stroke-width="3"/>
<rect x="40.9198" y="34.5" width="17.1605" height="18.037" rx="8.58025" fill="#008D54" stroke="#00CC79" stroke-width="3"/>
<rect x="66.3395" y="57.2901" width="17.1605" height="30.3086" rx="8.58025" fill="#008D54" stroke="#00CC79" stroke-width="3"/>
<rect x="66.3395" y="34.5" width="17.1605" height="18.037" rx="8.58025" fill="#008D54" stroke="#00CC79" stroke-width="3"/>
<rect x="4" y="2" width="90" height="23" rx="3" fill="#00BACE"/>
<rect width="14.6777" height="14.6777" rx="1" transform="matrix(0.695081 -0.718932 0.695081 0.718932 65 21.5523)" fill="#00BACE"/>
<rect width="14.6777" height="14.6777" rx="1" transform="matrix(0.695081 -0.718932 0.695081 0.718932 14 21.5523)" fill="#00BACE"/>
<circle cx="24" cy="13" r="5" fill="#007885"/>
<circle cx="50" cy="13" r="5" fill="#007885"/>
<circle cx="75" cy="13" r="5" fill="#007885"/>
</svg>
