<svg width="100" height="100" viewBox="0 0 100 100" fill="none" xmlns="http://www.w3.org/2000/svg">
<ellipse cx="50.5" cy="81.5" rx="32.5" ry="10.5" fill="#3E3E3E"/>
<rect x="4" y="11" width="91" height="68" rx="4" fill="#008D54"/>
<path fill-rule="evenodd" clip-rule="evenodd" d="M30.6929 74.8998C30.6929 74.8998 30.0224 73.5672 30.0703 72.7281C30.1182 71.8891 30.5013 69.8162 30.6929 69.4214C30.7506 69.3023 30.8999 69.053 31.0841 68.7453C31.5108 68.0327 32.125 67.0069 32.2254 66.5588C32.369 65.9172 32.4169 64.3378 32.4169 63.6468C32.4169 62.9841 32.7693 61.7767 32.9249 61.2436C32.9315 61.2208 32.9378 61.1993 32.9437 61.1791C33.0021 60.9785 33.013 60.5498 33.0247 60.0916C33.0418 59.4221 33.0605 58.6897 33.2311 58.5139C33.3798 58.3606 33.4259 58.3528 33.5021 58.3399C33.5732 58.3278 33.6705 58.3113 33.9015 58.1684C34.3804 57.8723 35.3382 52.4926 34.2368 49.8274C33.6555 48.4211 33.5143 47.2621 33.4121 46.423C33.3206 45.6719 33.2604 45.1771 32.9437 44.9906C32.6274 44.8044 32.3004 45.0685 31.8522 45.4306C31.3503 45.836 30.6963 46.3642 29.735 46.5207C27.9152 46.8168 25.808 46.57 25.0418 46.3726C24.2755 46.1752 22.8867 45.5829 23.1261 43.9542C23.3656 42.3255 24.1319 40.6968 24.8981 39.7097C25.6644 38.7226 26.6701 38.3277 28.5378 37.9329C29.1701 37.7992 29.5883 37.7391 29.9746 37.6835C30.7294 37.575 31.3621 37.484 33.2311 36.8964C34.6866 36.4388 35.8625 35.3394 36.9094 34.3606C37.8949 33.4394 38.766 32.625 39.6484 32.5532C40.1712 32.5106 40.702 32.5129 41.3111 32.5155C42.8219 32.522 44.8148 32.5305 48.3644 31.8622C52.6322 31.0587 54.966 30.7987 56.6012 30.6166C56.8743 30.5861 57.128 30.5579 57.3678 30.5296C58.8874 30.3507 59.8165 29.3604 60.3337 28.8092C60.387 28.7524 60.436 28.7003 60.4807 28.6542C60.9596 28.1606 61.1512 27.7164 61.1512 26.9267C61.1512 26.424 60.1417 25.8011 59.3093 25.2876C58.8343 24.9945 58.417 24.737 58.2778 24.5577C58.0567 24.273 58.282 24.1853 58.5122 24.0958C58.681 24.0302 58.8524 23.9635 58.8524 23.8174C58.8524 23.6957 58.6862 23.5067 58.4644 23.2547C58.0565 22.7911 57.4609 22.1142 57.3678 21.2509C57.2428 20.0915 57.4079 19.2309 57.4844 18.8318C57.4958 18.7722 57.5053 18.7229 57.5115 18.6845C57.5594 18.3884 57.8946 17.6973 58.0383 17.5493C58.1058 17.4798 58.1733 17.4864 58.2358 17.4926C58.3064 17.4996 58.3706 17.5059 58.4214 17.4012C58.4649 17.3117 58.4689 17.2627 58.4738 17.2037C58.4796 17.1326 58.4866 17.047 58.5651 16.8583C58.7088 16.5128 59.6666 15.9205 59.8581 15.9205C59.9519 15.9205 59.9998 16.0625 60.0467 16.2016C60.0956 16.3467 60.1435 16.4887 60.2413 16.4635C60.3319 16.4401 60.3277 16.3395 60.3227 16.219C60.3171 16.0848 60.3105 15.9259 60.4328 15.8219C60.6649 15.6245 61.7259 16.1674 62.4921 16.7103C63.0056 17.0741 63.4116 17.6153 63.7389 18.0515C63.8999 18.2662 64.0419 18.4555 64.1683 18.5857C64.5514 18.9805 65.1261 20.4119 65.2698 20.9054C65.2698 20.9054 65.3655 21.2296 65.605 21.6738C65.8445 22.1179 66.0839 22.4141 66.5149 22.5128C66.9459 22.6114 67.7601 22.6328 68.239 22.5835C68.6743 22.5386 68.793 22.2899 69.0268 21.8002C69.0503 21.7512 69.0748 21.6997 69.101 21.6457C69.3883 21.0535 71.0645 17.7467 71.4476 17.3025C71.8308 16.8583 73.6985 15.7231 74.1882 15.6749C74.23 15.6708 74.2703 15.6667 74.3092 15.6627C74.7259 15.6199 74.9872 15.5931 75.3375 15.7736C75.7207 15.9711 76 16.2039 76 16.5C76 16.6589 75.5544 16.8783 75.1488 17.078C74.7984 17.2506 74.4778 17.4085 74.5 17.5C74.5479 17.6974 75.5 18 76 18C76.5 18 77.0029 18.0922 77.0987 18.5857C77.1607 18.9054 77.1223 19.5771 77.0876 20.185C77.0687 20.5156 77.0508 20.8274 77.0508 21.0535C77.0508 21.6951 76.6677 22.7316 76.4282 23.1264C76.3175 23.309 76.2273 23.3544 76.1575 23.3895C76.0764 23.4302 76.023 23.4571 75.9972 23.6693C75.9689 23.9025 75.9908 23.9807 76.0232 24.0972C76.0458 24.178 76.0734 24.2771 76.093 24.459C76.1188 24.6979 75.4656 25.251 74.8042 25.811C74.236 26.2921 73.6618 26.7783 73.5069 27.0748C73.2282 27.6082 73.3467 28.7896 73.4221 29.5416C73.4374 29.6942 73.451 29.8291 73.459 29.9374C73.4864 30.3037 73.6698 30.5896 73.8311 30.841C73.9524 31.0299 74.0611 31.1993 74.0816 31.3687C74.105 31.5617 73.9911 31.6957 73.8686 31.84C73.7404 31.9908 73.6027 32.1528 73.6027 32.4051C73.6027 32.8987 73.3633 34.1819 73.1238 34.5274C72.8843 34.8729 72.7407 34.8729 72.3576 34.8729C72.1973 34.8729 72.0873 34.7692 71.9785 34.6667C71.8273 34.5242 71.6783 34.3839 71.3997 34.5274C71.1915 34.6347 70.9471 35.3671 70.6389 36.2905C70.2382 37.491 69.7298 39.0144 69.0531 39.9071C68.3925 40.7785 67.8632 41.3043 67.473 41.6918C67.1561 42.0067 66.9311 42.2302 66.8023 42.4735C66.5149 43.0164 66.1318 44.1023 66.0839 44.4971C66.0788 44.5393 66.0737 44.5882 66.0679 44.6438C66.0192 45.1089 65.9216 46.0424 65.3655 47.409C65.0976 48.0674 64.4306 49.2011 63.7386 50.3774C62.8224 51.9346 61.8623 53.5665 61.7259 54.2694C61.4864 55.5033 61.3906 69.9643 61.7738 71.0007C61.8587 71.2305 61.9413 71.4725 62.0236 71.7137C62.3126 72.5601 62.5983 73.397 62.971 73.6659C63.1847 73.8201 63.6654 74.043 64.1621 74.2734C64.7784 74.5592 65.4193 74.8565 65.605 75.0478C65.9402 75.3933 65.7008 75.8375 65.7008 75.8375H60.4328C60.4328 75.8375 60.5286 74.7023 60.5286 74.3075C60.5286 73.9127 59.9539 72.7281 59.7145 72.5307C59.6053 72.4408 59.4763 72.4533 59.3501 72.4656C59.1993 72.4802 59.0525 72.4945 58.9482 72.3333C58.8402 72.1664 58.854 70.8706 58.8694 69.418C58.8813 68.2934 58.8942 67.0748 58.8524 66.2133C58.8033 65.2004 58.6155 64.1875 58.4054 63.0546C58.2061 61.9794 57.9867 60.7962 57.8467 59.4023C57.6675 57.6167 57.656 56.8297 57.6494 56.3824C57.6455 56.1127 57.6433 55.9665 57.6073 55.7994C57.575 55.6494 57.5153 55.612 57.4413 55.5655C57.2961 55.4743 57.0954 55.3482 56.9368 54.2694C56.7625 53.0836 57.3243 52.5518 57.6982 52.1979C57.8379 52.0657 57.9513 51.9584 57.9904 51.851C58.1341 51.4561 58.3735 50.5678 58.0862 50.5678C57.9425 50.5678 57.7749 50.6541 57.5833 50.7528C57.3918 50.8516 57.1763 50.9626 56.9368 51.012C56.752 51.05 56.4744 51.0514 56.1702 51.0528C55.6861 51.0552 55.1346 51.0578 54.7818 51.2094C54.2504 51.4375 53.6781 52.6362 53.4434 53.1277C53.4243 53.1678 53.4074 53.2032 53.3929 53.2329C53.2014 53.6278 53.0098 56.6878 53.2014 57.6255C53.325 58.2308 54.207 61.4479 54.8296 63.7191C55.1715 64.9664 55.4352 65.9284 55.4522 66.0159C55.5001 66.2626 55.5001 67.3978 55.4043 67.6939C55.3124 67.9781 54.9119 68.3076 54.6681 68.5082C54.6578 68.5167 54.6478 68.525 54.6381 68.533C54.3986 68.7304 51.3815 70.2604 51.19 70.3097C50.9984 70.3591 48.5081 70.6552 48.2686 70.5565C48.0292 70.4578 47.694 69.7175 47.6461 69.4707C47.64 69.4394 47.6324 69.4026 47.6239 69.3616C47.5656 69.0793 47.4667 68.6004 47.5503 68.3849C47.6461 68.1381 48.6039 67.2991 48.7476 67.2004C48.8912 67.1017 49.8969 66.9536 50.1843 66.9536C50.28 66.9536 50.3865 66.981 50.5071 67.0121C50.7483 67.0743 51.0463 67.151 51.4294 67.0523C51.8946 66.9325 51.9832 66.3276 52.0509 65.8659C52.0669 65.7571 52.0816 65.6563 52.0999 65.5717C52.1957 65.1275 51.19 60.9817 50.6632 59.9946C50.1364 59.0075 49.0828 54.3187 49.0349 53.9733C49.0155 53.8335 48.863 53.6776 48.6786 53.4893C48.4072 53.2119 48.0669 52.8642 47.9813 52.3939C47.8376 51.6042 47.9813 50.5678 47.9813 50.5678L46.5925 49.8274C46.5925 49.8274 46.2573 53.2329 46.1615 53.9733C46.0657 54.7136 44.2459 57.6255 43.4317 58.1684C42.6176 58.7113 40.2709 59.8465 39.6484 59.9946C39.4931 60.0315 39.2753 60.0776 39.032 60.1291C38.3 60.2842 37.3378 60.488 37.1581 60.6362C36.9186 60.8336 35.6256 65.9172 35.6256 65.9172C35.6256 65.9172 35.3382 67.6939 35.4819 68.4343C35.5624 68.849 35.5226 69.4652 35.4805 70.1178C35.4475 70.6301 35.413 71.1648 35.434 71.6423C35.4819 72.7281 35.6256 74.8998 35.6256 74.8998H33.4226L33.2311 71.4449L31.8901 74.8998H30.6929ZM39.1681 52.6547C39.1924 53.2936 39.2191 53.9937 39.1215 54.2199C39.0566 54.3705 38.9366 54.5949 38.8101 54.8314C38.5635 55.2926 38.292 55.8001 38.3553 55.898C38.4511 56.0461 40.1272 53.4303 40.0794 52.9367C40.0315 52.4432 39.4089 51.4068 39.2173 51.4562C39.1233 51.4804 39.1446 52.0392 39.1681 52.6547Z" fill="#00BACE"/>
<path d="M30.6929 74.8998L30.2462 75.1245L30.3847 75.3998H30.6929V74.8998ZM30.6929 69.4214L31.1427 69.6396L31.1427 69.6396L30.6929 69.4214ZM31.0841 68.7453L31.5131 69.0021L31.5131 69.0021L31.0841 68.7453ZM32.2254 66.5588L31.7374 66.4495L31.7374 66.4495L32.2254 66.5588ZM32.9249 61.2436L32.4449 61.1035L32.4449 61.1035L32.9249 61.2436ZM32.9437 61.1791L32.4636 61.0393L32.4636 61.0393L32.9437 61.1791ZM33.0247 60.0916L33.5245 60.1043L33.5245 60.1043L33.0247 60.0916ZM33.2311 58.5139L32.8722 58.1657L32.8722 58.1657L33.2311 58.5139ZM33.5021 58.3399L33.5858 58.8328L33.5858 58.8328L33.5021 58.3399ZM33.9015 58.1684L34.1645 58.5937L34.1645 58.5937L33.9015 58.1684ZM34.2368 49.8274L34.6988 49.6365L34.6988 49.6365L34.2368 49.8274ZM33.4121 46.423L33.9085 46.3625L33.9085 46.3625L33.4121 46.423ZM32.9437 44.9906L33.1974 44.5598L33.1974 44.5598L32.9437 44.9906ZM31.8522 45.4306L31.538 45.0416L31.538 45.0416L31.8522 45.4306ZM29.735 46.5207L29.8154 47.0142L29.8154 47.0142L29.735 46.5207ZM25.0418 46.3726L24.917 46.8568L24.917 46.8568L25.0418 46.3726ZM23.1261 43.9542L22.6315 43.8815L23.1261 43.9542ZM28.5378 37.9329L28.4344 37.4437L28.4344 37.4437L28.5378 37.9329ZM29.9746 37.6835L30.0458 38.1785L30.0458 38.1785L29.9746 37.6835ZM33.2311 36.8964L33.0811 36.4195L33.0811 36.4195L33.2311 36.8964ZM36.9094 34.3606L36.568 33.9954L36.568 33.9954L36.9094 34.3606ZM39.6484 32.5532L39.6078 32.0548L39.6078 32.0548L39.6484 32.5532ZM41.3111 32.5155L41.3132 32.0155L41.3132 32.0155L41.3111 32.5155ZM48.3644 31.8622L48.4569 32.3536L48.4569 32.3536L48.3644 31.8622ZM56.6012 30.6166L56.6566 31.1135L56.6566 31.1135L56.6012 30.6166ZM57.3678 30.5296L57.3094 30.0331L57.3094 30.0331L57.3678 30.5296ZM60.3337 28.8092L59.9691 28.4671L59.9691 28.4671L60.3337 28.8092ZM60.4807 28.6542L60.8395 29.0024L60.8395 29.0024L60.4807 28.6542ZM61.1512 26.9267L61.6512 26.9267L61.6512 26.9267L61.1512 26.9267ZM59.3093 25.2876L59.0467 25.7131L59.0467 25.7131L59.3093 25.2876ZM58.2778 24.5577L58.6727 24.2511L58.6727 24.2511L58.2778 24.5577ZM58.5122 24.0958L58.331 23.6298L58.331 23.6298L58.5122 24.0958ZM58.4644 23.2547L58.0891 23.585L58.0891 23.585L58.4644 23.2547ZM57.3678 21.2509L57.865 21.1973L57.865 21.1973L57.3678 21.2509ZM57.4844 18.8318L56.9934 18.7376L56.9934 18.7376L57.4844 18.8318ZM57.5115 18.6845L58.0051 18.7643L58.0051 18.7643L57.5115 18.6845ZM58.0383 17.5493L58.3971 17.8975L58.3971 17.8975L58.0383 17.5493ZM58.2358 17.4926L58.2849 16.995L58.2849 16.995L58.2358 17.4926ZM58.4214 17.4012L58.8713 17.6195L58.8713 17.6195L58.4214 17.4012ZM58.4738 17.2037L58.9721 17.2446L58.9721 17.2446L58.4738 17.2037ZM58.5651 16.8583L59.0268 17.0503L59.0268 17.0503L58.5651 16.8583ZM60.0467 16.2016L59.5729 16.3614L59.5729 16.3614L60.0467 16.2016ZM60.2413 16.4635L60.3659 16.9477L60.3659 16.9477L60.2413 16.4635ZM60.3227 16.219L60.8223 16.1982L60.8223 16.1982L60.3227 16.219ZM60.4328 15.8219L60.7567 16.2028L60.7567 16.2028L60.4328 15.8219ZM62.4921 16.7103L62.7812 16.3023L62.7812 16.3023L62.4921 16.7103ZM63.7389 18.0515L63.3389 18.3516L63.3389 18.3516L63.7389 18.0515ZM64.1683 18.5857L63.8095 18.9339L63.8095 18.9339L64.1683 18.5857ZM65.2698 20.9054L64.7897 21.0452L64.7903 21.0471L65.2698 20.9054ZM68.239 22.5835L68.1877 22.0861L68.1877 22.0861L68.239 22.5835ZM69.0268 21.8002L69.478 22.0156L69.478 22.0156L69.0268 21.8002ZM69.101 21.6457L68.6511 21.4275L68.6511 21.4275L69.101 21.6457ZM74.1882 15.6749L74.2372 16.1725L74.2372 16.1725L74.1882 15.6749ZM74.3092 15.6627L74.3603 16.1601L74.3603 16.1601L74.3092 15.6627ZM75.3375 15.7736L75.1085 16.2181L75.1085 16.2181L75.3375 15.7736ZM75.1488 17.078L75.3697 17.5266L75.3697 17.5266L75.1488 17.078ZM74.5 17.5L74.0141 17.6179L74.0141 17.6179L74.5 17.5ZM77.0987 18.5857L76.6079 18.681L76.6079 18.681L77.0987 18.5857ZM77.0876 20.185L76.5884 20.1564L76.5884 20.1564L77.0876 20.185ZM77.0508 21.0535L76.5508 21.0535L76.5508 21.0535L77.0508 21.0535ZM76.4282 23.1264L76.0007 22.8671L76.0007 22.8671L76.4282 23.1264ZM76.1575 23.3895L76.3821 23.8362L76.3821 23.8362L76.1575 23.3895ZM75.9972 23.6693L75.5009 23.6091L75.5009 23.6091L75.9972 23.6693ZM76.0232 24.0972L75.5416 24.2315L75.5416 24.2315L76.0232 24.0972ZM76.093 24.459L75.5959 24.5126L75.5959 24.5126L76.093 24.459ZM74.8042 25.811L74.4811 25.4294L74.4811 25.4294L74.8042 25.811ZM73.5069 27.0748L73.9501 27.3063L73.9501 27.3063L73.5069 27.0748ZM73.4221 29.5416L72.9246 29.5915L72.9246 29.5915L73.4221 29.5416ZM73.459 29.9374L73.9577 29.9002L73.9577 29.9002L73.459 29.9374ZM73.8311 30.841L73.4103 31.111L73.4103 31.111L73.8311 30.841ZM74.0816 31.3687L73.5852 31.4289L73.5852 31.4289L74.0816 31.3687ZM73.8686 31.84L73.4875 31.5162L73.4875 31.5162L73.8686 31.84ZM73.6027 32.4051L74.1027 32.4051L74.1027 32.4051L73.6027 32.4051ZM71.9785 34.6667L72.3214 34.3028L72.3214 34.3028L71.9785 34.6667ZM71.3997 34.5274L71.1707 34.0829L71.1707 34.0829L71.3997 34.5274ZM70.6389 36.2905L71.1132 36.4488L71.1132 36.4488L70.6389 36.2905ZM69.0531 39.9071L68.6547 39.605L68.6547 39.605L69.0531 39.9071ZM67.473 41.6918L67.1207 41.3371L67.1207 41.3371L67.473 41.6918ZM66.8023 42.4735L67.2442 42.7074L67.2442 42.7074L66.8023 42.4735ZM66.0839 44.4971L65.5875 44.4369L65.5875 44.4369L66.0839 44.4971ZM66.0679 44.6438L65.5706 44.5917L65.5706 44.5918L66.0679 44.6438ZM65.3655 47.409L65.8287 47.5975L65.8287 47.5975L65.3655 47.409ZM63.7386 50.3774L64.1695 50.6309L64.1695 50.6309L63.7386 50.3774ZM61.7259 54.2694L62.2167 54.3646L62.2167 54.3646L61.7259 54.2694ZM61.7738 71.0007L61.3048 71.1741L61.3048 71.1741L61.7738 71.0007ZM62.0236 71.7137L61.5504 71.8752L61.5504 71.8752L62.0236 71.7137ZM62.971 73.6659L63.2635 73.2604L63.2635 73.2604L62.971 73.6659ZM64.1621 74.2734L63.9517 74.7269L63.9517 74.7269L64.1621 74.2734ZM65.605 75.0478L65.9638 74.6996L65.9638 74.6996L65.605 75.0478ZM65.7008 75.8375V76.3375H65.9993L66.1409 76.0748L65.7008 75.8375ZM60.4328 75.8375L59.9346 75.7955L59.8889 76.3375H60.4328V75.8375ZM59.7145 72.5307L60.0325 72.1449L60.0325 72.1449L59.7145 72.5307ZM59.3501 72.4656L59.3984 72.9632L59.3984 72.9632L59.3501 72.4656ZM58.9482 72.3333L58.5284 72.6049L58.5284 72.6049L58.9482 72.3333ZM58.8694 69.418L58.3694 69.4127L58.3694 69.4127L58.8694 69.418ZM58.8524 66.2133L59.3519 66.1891L59.3519 66.1891L58.8524 66.2133ZM58.4054 63.0546L57.9138 63.1457L57.9138 63.1457L58.4054 63.0546ZM57.8467 59.4023L58.3442 59.3524L58.3442 59.3524L57.8467 59.4023ZM57.6494 56.3824L57.1495 56.3897L57.1495 56.3897L57.6494 56.3824ZM57.6073 55.7994L57.1185 55.9048L57.1185 55.9048L57.6073 55.7994ZM57.4413 55.5655L57.1754 55.9889L57.1754 55.9889L57.4413 55.5655ZM56.9368 54.2694L56.4421 54.3421L56.4421 54.3421L56.9368 54.2694ZM57.6982 52.1979L58.0419 52.5611L58.0419 52.5611L57.6982 52.1979ZM57.9904 51.851L57.5205 51.68L57.5205 51.68L57.9904 51.851ZM57.5833 50.7528L57.8124 51.1973L57.8124 51.1973L57.5833 50.7528ZM56.9368 51.012L57.0378 51.5017L57.0378 51.5017L56.9368 51.012ZM56.1702 51.0528L56.1678 50.5529L56.1678 50.5529L56.1702 51.0528ZM54.7818 51.2094L54.979 51.6688L54.979 51.6688L54.7818 51.2094ZM53.4434 53.1277L53.8946 53.3431L53.8946 53.3431L53.4434 53.1277ZM53.3929 53.2329L53.8428 53.4512L53.8428 53.4512L53.3929 53.2329ZM53.2014 57.6255L52.7115 57.7256L52.7115 57.7256L53.2014 57.6255ZM54.8296 63.7191L54.3474 63.8513L54.3474 63.8513L54.8296 63.7191ZM55.4522 66.0159L55.9431 65.9206L55.9431 65.9206L55.4522 66.0159ZM55.4043 67.6939L54.9286 67.5401L54.9286 67.5401L55.4043 67.6939ZM54.6681 68.5082L54.9858 68.8943L54.9858 68.8943L54.6681 68.5082ZM54.6381 68.533L54.32 68.1472L54.32 68.1472L54.6381 68.533ZM47.6461 69.4707L48.1369 69.3755L48.1369 69.3755L47.6461 69.4707ZM47.6239 69.3616L47.1343 69.4628L47.1343 69.4628L47.6239 69.3616ZM47.5503 68.3849L48.0164 68.5658L48.0164 68.5658L47.5503 68.3849ZM51.4294 67.0523L51.5542 67.5365L51.4294 67.0523ZM52.0509 65.8659L51.5562 65.7934L51.5562 65.7934L52.0509 65.8659ZM52.0999 65.5717L52.5887 65.6771L52.5887 65.6771L52.0999 65.5717ZM49.0349 53.9733L48.5396 54.0419L48.5396 54.0419L49.0349 53.9733ZM48.6786 53.4893L48.3213 53.839L48.3213 53.839L48.6786 53.4893ZM47.9813 52.3939L47.4894 52.4834L47.4894 52.4834L47.9813 52.3939ZM47.9813 50.5678L48.4766 50.6364L48.5245 50.2907L48.2165 50.1265L47.9813 50.5678ZM46.5925 49.8274L46.8277 49.3862L46.1681 49.0346L46.0949 49.7785L46.5925 49.8274ZM39.6484 59.9946L39.7641 60.481L39.7641 60.481L39.6484 59.9946ZM39.032 60.1291L39.1356 60.6183L39.1356 60.6183L39.032 60.1291ZM37.1581 60.6362L37.4761 61.022L37.4761 61.022L37.1581 60.6362ZM35.6256 65.9172L35.141 65.7939L35.1355 65.8154L35.132 65.8373L35.6256 65.9172ZM35.4819 68.4343L34.9911 68.5295L34.9911 68.5295L35.4819 68.4343ZM35.4805 70.1178L34.9816 70.0856L34.9816 70.0856L35.4805 70.1178ZM35.434 71.6423L34.9345 71.6644L34.9345 71.6644L35.434 71.6423ZM35.6256 74.8998V75.3998H36.1597L36.1245 74.8668L35.6256 74.8998ZM33.4226 74.8998L32.9234 74.9274L32.9496 75.3998H33.4226V74.8998ZM33.2311 71.4449L33.7303 71.4172L32.7649 71.264L33.2311 71.4449ZM31.8901 74.8998V75.3998H32.2324L32.3562 75.0807L31.8901 74.8998ZM39.1215 54.2199L38.6624 54.022L38.6624 54.022L39.1215 54.2199ZM39.1681 52.6547L38.6685 52.6737L38.6685 52.6737L39.1681 52.6547ZM38.8101 54.8314L38.3692 54.5956L38.3692 54.5956L38.8101 54.8314ZM38.3553 55.898L38.7751 55.6265L38.7751 55.6265L38.3553 55.898ZM40.0794 52.9367L40.577 52.8884L40.577 52.8884L40.0794 52.9367ZM39.2173 51.4562L39.0926 50.972L39.0926 50.972L39.2173 51.4562ZM29.5711 72.6997C29.5408 73.2311 29.7312 73.8591 29.8945 74.3017C29.9803 74.5342 30.0673 74.7379 30.1329 74.8836C30.1657 74.9566 30.1934 75.0156 30.2132 75.0569C30.2231 75.0775 30.231 75.0938 30.2366 75.1052C30.2394 75.1109 30.2417 75.1154 30.2433 75.1186C30.2441 75.1202 30.2447 75.1215 30.2452 75.1225C30.2455 75.123 30.2457 75.1234 30.2458 75.1238C30.2459 75.1239 30.246 75.1241 30.2461 75.1242C30.2461 75.1242 30.2461 75.1243 30.2461 75.1244C30.2462 75.1244 30.2462 75.1245 30.6929 74.8998C31.1395 74.675 31.1395 74.6751 31.1396 74.6751C31.1396 74.6752 31.1396 74.6752 31.1396 74.6752C31.1396 74.6753 31.1396 74.6753 31.1396 74.6753C31.1396 74.6753 31.1396 74.6752 31.1395 74.6751C31.1394 74.6748 31.1391 74.6741 31.1386 74.6732C31.1377 74.6713 31.1361 74.6683 31.134 74.664C31.1299 74.6555 31.1234 74.6423 31.1151 74.6249C31.0984 74.59 31.0741 74.5383 31.0448 74.4733C30.9861 74.3429 30.9085 74.1611 30.8327 73.9555C30.6728 73.5221 30.5519 73.0642 30.5695 72.7566L29.5711 72.6997ZM30.243 69.2031C30.1679 69.3579 30.0973 69.6138 30.0355 69.8691C29.9693 70.143 29.9001 70.4744 29.8362 70.8163C29.7097 71.4933 29.5969 72.247 29.5711 72.6997L30.5695 72.7566C30.5915 72.3703 30.6943 71.668 30.8192 71.0001C30.881 70.6695 30.9465 70.3562 31.0075 70.1042C31.0729 69.8335 31.122 69.6822 31.1427 69.6396L30.243 69.2031ZM30.6552 68.4884C30.479 68.7826 30.3132 69.0585 30.243 69.2031L31.1427 69.6396C31.1881 69.5461 31.3208 69.3233 31.5131 69.0021L30.6552 68.4884ZM31.7374 66.4495C31.7053 66.5931 31.5641 66.9001 31.3383 67.3131C31.1245 67.7045 30.8695 68.1305 30.6552 68.4884L31.5131 69.0021C31.7255 68.6475 31.9909 68.2043 32.2159 67.7926C32.429 67.4026 32.6451 66.9725 32.7133 66.668L31.7374 66.4495ZM31.9169 63.6468C31.9169 63.9836 31.9052 64.5423 31.8757 65.0947C31.8456 65.6594 31.7989 66.175 31.7374 66.4495L32.7133 66.668C32.7955 66.3009 32.8445 65.706 32.8743 65.1479C32.9047 64.5775 32.9169 64.001 32.9169 63.6468H31.9169ZM32.4449 61.1035C32.3673 61.3695 32.237 61.8157 32.1262 62.2807C32.0183 62.7334 31.9169 63.2513 31.9169 63.6468H32.9169C32.9169 63.3796 32.9917 62.9625 33.0989 62.5125C33.2032 62.0748 33.3269 61.6508 33.4049 61.3837L32.4449 61.1035ZM32.4636 61.0393C32.4578 61.0593 32.4516 61.0807 32.4449 61.1035L33.4049 61.3837C33.4115 61.3609 33.4178 61.3392 33.4238 61.3188L32.4636 61.0393ZM32.5249 60.0788C32.519 60.3105 32.5135 60.5227 32.5026 60.7017C32.491 60.8931 32.4754 60.999 32.4636 61.0393L33.4238 61.3188C33.4704 61.1586 33.4894 60.9499 33.5008 60.7622C33.5129 60.5621 33.5188 60.3309 33.5245 60.1043L32.5249 60.0788ZM32.8722 58.1657C32.7318 58.3104 32.6737 58.5015 32.6442 58.619C32.6096 58.7574 32.5878 58.9142 32.5727 59.0691C32.5424 59.3794 32.5333 59.7494 32.5249 60.0788L33.5245 60.1043C33.5332 59.7643 33.5419 59.4334 33.568 59.1661C33.581 59.0323 33.5969 58.9312 33.6143 58.8619C33.6369 58.7717 33.645 58.8053 33.5899 58.8621L32.8722 58.1657ZM33.4184 57.8469C33.3752 57.8543 33.2676 57.8702 33.145 57.9405C33.043 57.999 32.9549 58.0805 32.8722 58.1657L33.5899 58.8621C33.6203 58.8307 33.6391 58.8135 33.6495 58.8046C33.6596 58.796 33.6564 58.8 33.6425 58.808C33.6352 58.8122 33.626 58.8169 33.6152 58.8214C33.6043 58.826 33.5942 58.8294 33.5855 58.8318C33.5773 58.8342 33.572 58.8352 33.5718 58.8352C33.5718 58.8352 33.5727 58.8351 33.5751 58.8346C33.5778 58.8342 33.5807 58.8337 33.5858 58.8328L33.4184 57.8469ZM33.6386 57.7432C33.5414 57.8032 33.4886 57.8266 33.4649 57.8355C33.4482 57.8419 33.4437 57.8426 33.4184 57.8469L33.5858 58.8328C33.6317 58.825 33.7113 58.8115 33.8188 58.7708C33.9193 58.7328 34.0306 58.6764 34.1645 58.5937L33.6386 57.7432ZM33.7747 50.0184C34.2761 51.2316 34.3243 53.1384 34.164 54.8394C34.085 55.6775 33.9581 56.4376 33.8244 56.9992C33.7572 57.2814 33.6909 57.5023 33.6323 57.6539C33.6027 57.7305 33.5795 57.7776 33.5651 57.8021C33.5419 57.8416 33.5609 57.7912 33.6386 57.7432L34.1645 58.5937C34.302 58.5086 34.3846 58.3815 34.4275 58.3083C34.4792 58.2202 34.5247 58.1188 34.5649 58.0147C34.646 57.805 34.7245 57.5363 34.7972 57.2308C34.9434 56.6171 35.0769 55.8102 35.1596 54.9332C35.3225 53.2041 35.2989 51.0884 34.6988 49.6365L33.7747 50.0184ZM32.9158 46.4834C33.0189 47.3297 33.166 48.5457 33.7747 50.0184L34.6988 49.6365C34.145 48.2964 34.0098 47.1945 33.9085 46.3625L32.9158 46.4834ZM32.69 45.4215C32.6902 45.4216 32.6912 45.4221 32.6936 45.4246C32.6963 45.4274 32.7025 45.4344 32.7111 45.4485C32.7298 45.4789 32.7544 45.5334 32.7802 45.6274C32.8343 45.8248 32.8684 46.094 32.9158 46.4834L33.9085 46.3625C33.8644 46.0008 33.8226 45.6472 33.7445 45.3628C33.6663 45.0778 33.524 44.7521 33.1974 44.5598L32.69 45.4215ZM32.1663 45.8195C32.4065 45.6256 32.5527 45.5109 32.6697 45.4528C32.7205 45.4276 32.7367 45.4288 32.7284 45.4292C32.7231 45.4295 32.7144 45.4291 32.7045 45.4266C32.6947 45.4242 32.6895 45.4212 32.69 45.4215L33.1974 44.5598C32.8414 44.3501 32.4899 44.4257 32.2251 44.5571C31.9875 44.675 31.7461 44.8735 31.538 45.0416L32.1663 45.8195ZM29.8154 47.0142C30.9208 46.8343 31.6667 46.2232 32.1663 45.8195L31.538 45.0416C31.0339 45.4488 30.4718 45.8942 29.6547 46.0271L29.8154 47.0142ZM24.917 46.8568C25.7417 47.0692 27.9191 47.3227 29.8154 47.0142L29.6547 46.0271C27.9114 46.3108 25.8743 46.0708 25.1665 45.8884L24.917 46.8568ZM22.6315 43.8815C22.4856 44.8734 22.8442 45.5906 23.3701 46.0697C23.8705 46.5257 24.5004 46.7494 24.917 46.8568L25.1665 45.8884C24.8169 45.7983 24.3692 45.6272 24.0436 45.3305C23.7434 45.057 23.5272 44.6637 23.6208 44.0269L22.6315 43.8815ZM24.5031 39.4031C23.6862 40.4555 22.8839 42.1642 22.6315 43.8815L23.6208 44.0269C23.8473 42.4868 24.5776 40.938 25.2931 40.0163L24.5031 39.4031ZM28.4344 37.4437C26.5498 37.8421 25.3861 38.2656 24.5031 39.4031L25.2931 40.0163C25.9426 39.1796 26.7904 38.8134 28.6412 38.4221L28.4344 37.4437ZM29.9035 37.1886C29.5142 37.2446 29.083 37.3066 28.4344 37.4437L28.6412 38.4221C29.2572 38.2919 29.6625 38.2336 30.0458 38.1785L29.9035 37.1886ZM33.0811 36.4195C31.2389 36.9986 30.6326 37.0838 29.9035 37.1886L30.0458 38.1785C30.8261 38.0662 31.4853 37.9694 33.381 37.3734L33.0811 36.4195ZM36.568 33.9954C35.5042 34.9899 34.4095 36.0018 33.0811 36.4195L33.381 37.3734C34.9637 36.8758 36.2208 35.6889 37.2509 34.7259L36.568 33.9954ZM39.6078 32.0548C39.0313 32.1017 38.5029 32.3858 38.0237 32.7338C37.5424 33.0834 37.0544 33.5407 36.568 33.9954L37.2509 34.7259C37.7499 34.2594 38.1902 33.8488 38.6114 33.5429C39.0347 33.2355 39.383 33.0764 39.6889 33.0515L39.6078 32.0548ZM41.3132 32.0155C40.7087 32.0129 40.1558 32.0102 39.6078 32.0548L39.6889 33.0515C40.1866 33.011 40.6953 33.0129 41.3089 33.0155L41.3132 32.0155ZM48.2719 31.3708C44.7651 32.0311 42.8069 32.0219 41.3132 32.0155L41.3089 33.0155C42.837 33.0221 44.8644 33.03 48.4569 32.3536L48.2719 31.3708ZM56.5459 30.1196C54.9033 30.3026 52.5562 30.5642 48.2719 31.3708L48.4569 32.3536C52.7083 31.5531 55.0288 31.2948 56.6566 31.1135L56.5459 30.1196ZM57.3094 30.0331C57.0713 30.0611 56.8193 30.0892 56.5459 30.1196L56.6566 31.1135C56.9293 31.0831 57.1846 31.0547 57.4263 31.0262L57.3094 30.0331ZM59.9691 28.4671C59.4513 29.019 58.632 29.8773 57.3094 30.0331L57.4263 31.0262C59.1427 30.8241 60.1818 29.7019 60.6984 29.1514L59.9691 28.4671ZM60.1219 28.3059C60.0736 28.3557 60.0216 28.4111 59.9691 28.4671L60.6984 29.1514C60.7524 29.0937 60.7983 29.0449 60.8395 29.0024L60.1219 28.3059ZM60.6512 26.9267C60.6512 27.2816 60.608 27.5226 60.5308 27.717C60.4544 27.9096 60.3313 28.0901 60.1219 28.306L60.8395 29.0024C61.109 28.7247 61.3212 28.4364 61.4603 28.086C61.5986 27.7375 61.6512 27.3615 61.6512 26.9267L60.6512 26.9267ZM59.0467 25.7131C59.4698 25.9741 59.9029 26.2421 60.2316 26.5029C60.3959 26.6332 60.514 26.7463 60.5872 26.8395C60.6663 26.9403 60.6512 26.9646 60.6512 26.9267L61.6512 26.9267C61.6512 26.6375 61.5099 26.3954 61.3737 26.222C61.2316 26.0409 61.0453 25.872 60.8531 25.7195C60.469 25.4148 59.9812 25.1146 59.5718 24.862L59.0467 25.7131ZM57.8828 24.8643C58.007 25.0242 58.2096 25.1729 58.386 25.2931C58.5785 25.4243 58.8123 25.5684 59.0467 25.7131L59.5718 24.862C59.3313 24.7136 59.1189 24.5825 58.9492 24.4668C58.8648 24.4093 58.7977 24.3601 58.7469 24.3187C58.7218 24.2982 58.7032 24.2817 58.6898 24.2688C58.6761 24.2555 58.6716 24.2497 58.6727 24.2511L57.8828 24.8643ZM58.331 23.6298C58.2788 23.6501 58.1978 23.6812 58.1221 23.7193C58.05 23.7557 57.9358 23.8209 57.8423 23.9327C57.7332 24.0631 57.667 24.2403 57.6928 24.4416C57.7152 24.6164 57.801 24.7589 57.8828 24.8643L58.6727 24.2511C58.644 24.2141 58.675 24.2389 58.6847 24.3144C58.6901 24.3568 58.6876 24.4072 58.6713 24.4595C58.6552 24.5107 58.6305 24.549 58.6092 24.5744C58.5732 24.6175 58.5447 24.6262 58.5727 24.6121C58.5971 24.5998 58.6306 24.5863 58.6934 24.5618L58.331 23.6298ZM58.3524 23.8174C58.3524 23.7483 58.3749 23.6837 58.4081 23.6343C58.4368 23.5916 58.4648 23.5731 58.466 23.5723C58.4678 23.5711 58.4596 23.5766 58.4328 23.5886C58.4062 23.6005 58.3754 23.6125 58.331 23.6298L58.6934 24.5618C58.7625 24.535 58.9055 24.4821 59.0252 24.4013C59.1562 24.3129 59.3524 24.1269 59.3524 23.8174H58.3524ZM58.0891 23.585C58.2051 23.717 58.2856 23.809 58.3392 23.8817C58.3513 23.8982 58.3601 23.9111 58.3663 23.9207C58.3725 23.9305 58.3746 23.9348 58.3743 23.9341C58.3741 23.9338 58.3694 23.9243 58.3644 23.9069C58.3594 23.8895 58.3524 23.8586 58.3524 23.8174H59.3524C59.3524 23.679 59.3071 23.565 59.2717 23.493C59.2342 23.4167 59.1873 23.3469 59.144 23.2882C59.059 23.173 58.9455 23.0445 58.8398 22.9245L58.0891 23.585ZM56.8707 21.3045C56.9833 22.3492 57.6974 23.1399 58.0891 23.585L58.8398 22.9245C58.4156 22.4423 57.9385 21.8793 57.865 21.1973L56.8707 21.3045ZM56.9934 18.7376C56.914 19.1515 56.7377 20.0703 56.8707 21.3045L57.865 21.1973C57.748 20.1126 57.9018 19.3103 57.9755 18.926L56.9934 18.7376ZM57.0179 18.6046C57.0131 18.6342 57.0053 18.6752 56.9934 18.7376L57.9755 18.926C57.9863 18.8692 57.9974 18.8116 58.0051 18.7643L57.0179 18.6046ZM57.6795 17.2011C57.597 17.286 57.5231 17.4045 57.4697 17.4964C57.4088 17.6013 57.3455 17.7237 57.2868 17.8479C57.178 18.0785 57.0541 18.3809 57.0179 18.6046L58.0051 18.7643C58.0168 18.692 58.0845 18.5008 58.1911 18.2748C58.2403 18.1707 58.2906 18.0741 58.3345 17.9985C58.3859 17.91 58.4077 17.8865 58.3971 17.8975L57.6795 17.2011ZM58.2849 16.995C58.2638 16.9929 58.1607 16.9796 58.0461 17.0012C57.9109 17.0268 57.7845 17.0929 57.6795 17.2011L58.3971 17.8975C58.3816 17.9135 58.3582 17.933 58.3262 17.9503C58.2938 17.9678 58.2611 17.9783 58.2317 17.9839C58.2037 17.9892 58.183 17.9891 58.1755 17.9889C58.1704 17.9888 58.1682 17.9884 58.1867 17.9902L58.2849 16.995ZM57.9716 17.1829C57.9773 17.1711 57.9945 17.1394 58.0305 17.1039C58.0696 17.0656 58.1192 17.0344 58.175 17.0154C58.2267 16.9978 58.2683 16.996 58.2856 16.996C58.2989 16.9959 58.3076 16.9973 58.2849 16.995L58.1867 17.9902C58.1983 17.9913 58.3451 18.0138 58.4971 17.9621C58.6887 17.8969 58.8053 17.7555 58.8713 17.6195L57.9716 17.1829ZM57.9754 17.1628C57.9748 17.1706 57.9744 17.1753 57.974 17.1796C57.9736 17.1836 57.9734 17.1856 57.9733 17.1865C57.9732 17.1876 57.9735 17.1845 57.9746 17.1796C57.9758 17.1745 57.9769 17.1712 57.9772 17.1705C57.9773 17.1701 57.976 17.1739 57.9716 17.1829L58.8713 17.6195C58.9528 17.4515 58.9648 17.3336 58.9721 17.2446L57.9754 17.1628ZM58.1034 16.6663C58.0016 16.9113 57.9847 17.0493 57.9754 17.1628L58.9721 17.2446C58.9746 17.2133 58.9757 17.2037 58.9797 17.1864C58.9843 17.1661 58.9957 17.1249 59.0268 17.0503L58.1034 16.6663ZM59.8581 15.4205C59.7372 15.4205 59.6286 15.4594 59.5773 15.4787C59.509 15.5045 59.4372 15.5378 59.3676 15.5734C59.2274 15.6452 59.0674 15.7411 58.9126 15.8464C58.7582 15.9513 58.5982 16.0729 58.462 16.1983C58.3403 16.3104 58.1835 16.4737 58.1034 16.6663L59.0268 17.0503C59.0185 17.0701 59.0353 17.0298 59.1396 16.9337C59.2295 16.851 59.3478 16.7597 59.4748 16.6734C59.6013 16.5874 59.7256 16.5136 59.8234 16.4635C59.8728 16.4382 59.9084 16.4226 59.9297 16.4146C59.968 16.4002 59.9312 16.4205 59.8581 16.4205V15.4205ZM60.5205 16.0419C60.5017 15.9861 60.4633 15.8667 60.4065 15.765C60.361 15.6836 60.1972 15.4205 59.8581 15.4205V16.4205C59.7427 16.4205 59.6528 16.373 59.5987 16.3276C59.5528 16.2889 59.534 16.2536 59.5335 16.2528C59.5315 16.2493 59.535 16.2549 59.5435 16.2774C59.5519 16.2994 59.5606 16.3247 59.5729 16.3614L60.5205 16.0419ZM60.1166 15.9793C60.1657 15.9666 60.2242 15.9616 60.2874 15.9719C60.3502 15.9822 60.403 16.0052 60.444 16.0312C60.5187 16.0785 60.5507 16.133 60.5543 16.139C60.5605 16.1494 60.5589 16.1491 60.5503 16.1268C60.5421 16.1056 60.5335 16.0804 60.5205 16.0419L59.5729 16.3614C59.5912 16.4156 59.6327 16.5466 59.697 16.6538C59.7309 16.7103 59.7963 16.8046 59.909 16.876C60.0412 16.9597 60.204 16.9894 60.3659 16.9477L60.1166 15.9793ZM59.8231 16.2397C59.8245 16.273 59.825 16.2879 59.8249 16.2988C59.8247 16.3102 59.8238 16.2956 59.8299 16.2685C59.8362 16.2402 59.8549 16.1764 59.9102 16.1107C59.9709 16.0384 60.0478 15.997 60.1166 15.9793L60.3659 16.9477C60.48 16.9183 60.5904 16.8556 60.6757 16.7541C60.7555 16.6591 60.7898 16.5583 60.8058 16.4869C60.833 16.3653 60.8238 16.2349 60.8223 16.1982L59.8231 16.2397ZM60.1089 15.441C59.7716 15.7279 59.8198 16.1587 59.8231 16.2398L60.8223 16.1982C60.8208 16.1626 60.82 16.1413 60.8203 16.1221C60.8206 16.104 60.8218 16.0985 60.8213 16.1006C60.8208 16.1035 60.8176 16.1189 60.8065 16.1402C60.7946 16.163 60.7775 16.1851 60.7567 16.2028L60.1089 15.441ZM62.7812 16.3023C62.3778 16.0165 61.8941 15.7282 61.4706 15.534C61.2614 15.438 61.0462 15.3553 60.8519 15.3127C60.7553 15.2915 60.643 15.2754 60.5283 15.2819C60.4178 15.2882 60.2529 15.3185 60.1089 15.441L60.7567 16.2028C60.6708 16.2759 60.5898 16.28 60.5848 16.2803C60.5755 16.2808 60.5901 16.279 60.6376 16.2894C60.7315 16.3101 60.8729 16.36 61.0537 16.4429C61.4103 16.6065 61.8402 16.8611 62.2031 17.1182L62.7812 16.3023ZM64.1388 17.7515C63.8201 17.3266 63.3694 16.719 62.7812 16.3023L62.2031 17.1182C62.6419 17.4291 63.0031 17.9039 63.3389 18.3516L64.1388 17.7515ZM64.5271 18.2375C64.4279 18.1353 64.3073 17.9761 64.1388 17.7515L63.3389 18.3516C63.4925 18.5564 63.6559 18.7757 63.8095 18.9339L64.5271 18.2375ZM65.7498 20.7657C65.6694 20.4895 65.4803 19.9857 65.2653 19.5046C65.1569 19.2619 65.0381 19.0164 64.9186 18.802C64.8045 18.5972 64.6708 18.3856 64.5271 18.2375L63.8095 18.9339C63.8574 18.9833 63.9392 19.0987 64.045 19.2887C64.1456 19.4691 64.2512 19.6863 64.3523 19.9126C64.5564 20.3692 64.7264 20.8278 64.7897 21.0452L65.7498 20.7657ZM66.0451 21.4365C65.9361 21.2344 65.8605 21.0606 65.8127 20.9395C65.7889 20.8791 65.7721 20.8321 65.7617 20.8017C65.7566 20.7865 65.753 20.7755 65.7509 20.769C65.7499 20.7658 65.7493 20.7637 65.749 20.7628C65.7489 20.7624 65.7488 20.7622 65.7489 20.7624C65.7489 20.7624 65.7489 20.7626 65.749 20.7628C65.749 20.7629 65.7491 20.7631 65.7491 20.7632C65.7491 20.7633 65.7492 20.7634 65.7492 20.7635C65.7492 20.7635 65.7492 20.7636 65.7492 20.7636C65.7492 20.7637 65.7493 20.7637 65.2698 20.9054C64.7903 21.0471 64.7903 21.0472 64.7903 21.0473C64.7903 21.0473 64.7903 21.0474 64.7903 21.0474C64.7904 21.0475 64.7904 21.0476 64.7904 21.0477C64.7905 21.048 64.7906 21.0482 64.7907 21.0485C64.7908 21.049 64.791 21.0497 64.7912 21.0504C64.7916 21.0518 64.7922 21.0535 64.7928 21.0555C64.794 21.0596 64.7957 21.0649 64.7977 21.0714C64.8019 21.0844 64.8076 21.1022 64.8152 21.1243C64.8303 21.1685 64.8524 21.2304 64.8825 21.3065C64.9425 21.4586 65.0344 21.669 65.1649 21.911L66.0451 21.4365ZM66.6265 22.0254C66.4144 21.9768 66.267 21.8481 66.0451 21.4365L65.1649 21.911C65.4219 22.3877 65.7534 22.8514 66.4033 23.0001L66.6265 22.0254ZM68.1877 22.0861C67.7453 22.1317 66.989 22.1083 66.6265 22.0254L66.4033 23.0001C66.9029 23.1145 67.7749 23.1339 68.2902 23.0808L68.1877 22.0861ZM68.5756 21.5848C68.5155 21.7108 68.4705 21.8046 68.4277 21.8829C68.3853 21.9602 68.3553 22.0031 68.3328 22.0286C68.3139 22.0502 68.3021 22.0575 68.2927 22.0621C68.281 22.0678 68.2518 22.0795 68.1877 22.0861L68.2902 23.0808C68.6184 23.047 68.8782 22.923 69.0841 22.6886C69.2535 22.4959 69.3724 22.237 69.478 22.0156L68.5756 21.5848ZM68.6511 21.4275C68.6242 21.483 68.599 21.5359 68.5756 21.5848L69.478 22.0156C69.5015 21.9664 69.5255 21.9163 69.5509 21.864L68.6511 21.4275ZM71.069 16.9759C70.9337 17.1328 70.7313 17.4729 70.5243 17.8394C70.3053 18.2274 70.0482 18.7059 69.7959 19.1859C69.2913 20.1453 68.7979 21.1251 68.6511 21.4275L69.5508 21.864C69.6915 21.5742 70.1798 20.6044 70.6809 19.6513C70.9314 19.175 71.1832 18.7065 71.3952 18.3311C71.6192 17.9341 71.77 17.6943 71.8262 17.6291L71.069 16.9759ZM74.1392 15.1773C74.0131 15.1897 73.8821 15.2308 73.772 15.2716C73.6539 15.3153 73.5242 15.3723 73.3906 15.4365C73.1231 15.5651 72.8179 15.7333 72.5208 15.9114C72.2234 16.0897 71.927 16.2822 71.6773 16.4612C71.4396 16.6316 71.2073 16.8156 71.069 16.9759L71.8262 17.6291C71.8795 17.5673 72.0243 17.4429 72.2599 17.274C72.4835 17.1137 72.7564 16.9361 73.035 16.7691C73.3141 16.6018 73.5915 16.4494 73.8239 16.3378C73.9403 16.2818 74.0398 16.2387 74.1191 16.2094C74.2063 16.1771 74.2409 16.1722 74.2372 16.1725L74.1392 15.1773ZM74.2582 15.1653C74.2191 15.1693 74.1798 15.1733 74.1392 15.1773L74.2372 16.1725C74.2802 16.1683 74.3215 16.164 74.3603 16.1601L74.2582 15.1653ZM75.5666 15.3292C75.0703 15.0734 74.6703 15.123 74.2582 15.1653L74.3603 16.1601C74.7816 16.1168 74.904 16.1127 75.1085 16.2181L75.5666 15.3292ZM76.5 16.5C76.5 16.1796 76.345 15.9285 76.1692 15.7495C75.9976 15.5748 75.7785 15.4384 75.5666 15.3292L75.1085 16.2181C75.2797 16.3063 75.3918 16.385 75.4557 16.4501C75.5153 16.5109 75.5 16.5243 75.5 16.5H76.5ZM75.3697 17.5266C75.5659 17.43 75.8021 17.3142 75.9884 17.1996C76.0804 17.143 76.1838 17.0728 76.2697 16.9905C76.3332 16.9298 76.5 16.7594 76.5 16.5H75.5C75.5 16.4019 75.5341 16.3337 75.5515 16.3047C75.569 16.2757 75.583 16.2636 75.5784 16.268C75.5681 16.2778 75.5347 16.3047 75.4646 16.3478C75.3267 16.4326 75.1374 16.5263 74.9279 16.6295L75.3697 17.5266ZM74.9859 17.3821C75.022 17.531 74.9754 17.6484 74.9459 17.7024C74.9177 17.7541 74.888 17.7815 74.8846 17.7846C74.877 17.7917 74.8888 17.7799 74.9413 17.7485C75.0411 17.6889 75.1876 17.6163 75.3697 17.5266L74.9279 16.6295C74.7597 16.7124 74.5707 16.805 74.428 16.8903C74.3594 16.9314 74.2733 16.987 74.2009 17.0549C74.1651 17.0884 74.1112 17.1444 74.0683 17.223C74.0242 17.3038 73.9724 17.4461 74.0141 17.6179L74.9859 17.3821ZM76 17.5C75.8242 17.5 75.5177 17.441 75.236 17.3488C75.0988 17.3039 74.9902 17.2584 74.9221 17.2216C74.887 17.2026 74.8779 17.1941 74.8837 17.1991C74.8871 17.202 74.9021 17.2151 74.9203 17.2395C74.9378 17.263 74.9686 17.311 74.9859 17.3821L74.0141 17.6179C74.0576 17.7972 74.1757 17.9092 74.2317 17.9573C74.3007 18.0166 74.3777 18.0641 74.4464 18.1012C74.586 18.1767 74.7556 18.2438 74.9249 18.2992C75.2563 18.4077 75.6758 18.5 76 18.5V17.5ZM77.5896 18.4905C77.5046 18.0526 77.2214 17.7851 76.8958 17.6473C76.6004 17.5223 76.267 17.5 76 17.5V18.5C76.233 18.5 76.4011 18.5238 76.506 18.5682C76.5524 18.5878 76.5724 18.6058 76.581 18.6156C76.5874 18.623 76.5997 18.639 76.6079 18.681L77.5896 18.4905ZM77.5868 20.2135C77.604 19.9117 77.6229 19.5826 77.6293 19.2882C77.6355 19.0061 77.632 18.709 77.5896 18.4905L76.6079 18.681C76.6275 18.7821 76.6358 18.9807 76.6296 19.2664C76.6236 19.5397 76.6059 19.8503 76.5884 20.1564L77.5868 20.2135ZM77.5508 21.0535C77.5508 20.8451 77.5675 20.5501 77.5868 20.2135L76.5884 20.1564C76.5698 20.4812 76.5508 20.8098 76.5508 21.0535L77.5508 21.0535ZM76.8558 23.3857C77.0033 23.1424 77.1731 22.7444 77.3051 22.3364C77.436 21.9316 77.5508 21.4529 77.5508 21.0535L76.5508 21.0535C76.5508 21.2957 76.4741 21.6561 76.3536 22.0286C76.2341 22.398 76.0926 22.7156 76.0007 22.8671L76.8558 23.3857ZM76.3821 23.8362C76.4212 23.8165 76.508 23.774 76.6023 23.6934C76.6953 23.614 76.7783 23.5133 76.8558 23.3857L76.0007 22.8671C75.9674 22.9221 75.95 22.9354 75.9527 22.9331C75.953 22.9329 75.9536 22.9324 75.9545 22.9317C75.9554 22.9311 75.956 22.9307 75.9558 22.9308C75.9542 22.9318 75.9515 22.9334 75.9329 22.9427L76.3821 23.8362ZM76.4936 23.7295C76.4979 23.6938 76.5016 23.6823 76.5007 23.6854C76.4993 23.6899 76.4908 23.7166 76.4669 23.7509C76.4407 23.7884 76.41 23.8154 76.3852 23.8325C76.3749 23.8396 76.3678 23.8434 76.3675 23.8436C76.3673 23.8437 76.3682 23.8432 76.3707 23.8419C76.3735 23.8405 76.3767 23.8389 76.3821 23.8362L75.9329 22.9427C75.9015 22.9585 75.7547 23.0237 75.6463 23.1793C75.5484 23.3198 75.5166 23.4792 75.5009 23.6091L76.4936 23.7295ZM76.5049 23.9629C76.4881 23.9028 76.4865 23.8935 76.4852 23.88C76.4838 23.8649 76.4819 23.8256 76.4936 23.7295L75.5009 23.6091C75.4842 23.7462 75.4791 23.8626 75.4897 23.9741C75.5003 24.087 75.5259 24.1751 75.5416 24.2315L76.5049 23.9629ZM76.5901 24.4054C76.5664 24.1852 76.531 24.0567 76.5049 23.9629L75.5416 24.2315C75.5605 24.2992 75.5804 24.3689 75.5959 24.5126L76.5901 24.4054ZM75.1273 26.1926C75.4532 25.9166 75.7978 25.6253 76.0564 25.3715C76.1849 25.2455 76.3084 25.1132 76.401 24.9848C76.4474 24.9204 76.4957 24.844 76.532 24.759C76.5665 24.6783 76.6061 24.5531 76.5901 24.4054L75.5959 24.5126C75.5864 24.4246 75.6112 24.369 75.6123 24.3664C75.6152 24.3596 75.6115 24.3699 75.59 24.3998C75.5467 24.4598 75.4704 24.5456 75.3561 24.6577C75.1293 24.8802 74.8165 25.1454 74.4811 25.4294L75.1273 26.1926ZM73.9501 27.3063C73.9826 27.244 74.1022 27.1017 74.3421 26.8773C74.5652 26.6687 74.8406 26.4354 75.1273 26.1926L74.4811 25.4294C74.1996 25.6678 73.9038 25.9181 73.6591 26.1469C73.4312 26.3601 73.1861 26.6091 73.0638 26.8433L73.9501 27.3063ZM73.9196 29.4917C73.8816 29.1122 73.8357 28.6512 73.8317 28.2216C73.8275 27.7647 73.8744 27.4513 73.9501 27.3063L73.0638 26.8433C72.8608 27.2317 72.8276 27.7756 72.8318 28.2308C72.8362 28.7133 72.8873 29.219 72.9246 29.5915L73.9196 29.4917ZM73.9577 29.9002C73.949 29.7842 73.9347 29.6421 73.9196 29.4917L72.9246 29.5915C72.9402 29.7464 72.9529 29.8741 72.9604 29.9746L73.9577 29.9002ZM74.2519 30.5709C74.0835 30.3084 73.9743 30.123 73.9577 29.9002L72.9604 29.9746C72.9985 30.4844 73.2561 30.8707 73.4103 31.111L74.2519 30.5709ZM74.578 31.3085C74.5407 31.0013 74.3522 30.7272 74.2519 30.5709L73.4103 31.111C73.474 31.2103 73.5177 31.2791 73.5496 31.3411C73.5646 31.3701 73.5736 31.3914 73.5791 31.4069C73.5844 31.4222 73.5852 31.4289 73.5852 31.4289L74.578 31.3085ZM74.2496 32.1637C74.3451 32.0513 74.6317 31.7518 74.578 31.3085L73.5852 31.4289C73.5842 31.4203 73.5845 31.408 73.5873 31.3953C73.5898 31.3837 73.5928 31.3796 73.5899 31.385C73.5864 31.3914 73.5783 31.4046 73.5603 31.428C73.5416 31.4524 73.5197 31.4783 73.4875 31.5162L74.2496 32.1637ZM74.1027 32.4051C74.1027 32.3577 74.1126 32.325 74.2496 32.1637L73.4875 31.5162C73.3682 31.6567 73.1027 31.948 73.1027 32.4051L74.1027 32.4051ZM73.5347 34.8122C73.64 34.6604 73.7179 34.4541 73.7762 34.2709C73.8388 34.0739 73.8951 33.8486 73.9423 33.625C74.0346 33.1874 74.1027 32.7036 74.1027 32.4051L73.1027 32.4051C73.1027 32.6003 73.0511 33.0048 72.9638 33.4186C72.9212 33.6206 72.8728 33.8118 72.8231 33.968C72.7983 34.046 72.7747 34.1107 72.7532 34.1612C72.7425 34.1862 72.7332 34.2057 72.7256 34.2203C72.7218 34.2275 72.7188 34.2329 72.7165 34.2368C72.7153 34.2387 72.7144 34.2402 72.7138 34.2412C72.7132 34.2421 72.7128 34.2426 72.7129 34.2426L73.5347 34.8122ZM72.3576 35.3729C72.5177 35.3729 72.754 35.3799 72.972 35.2971C73.2242 35.2014 73.3918 35.0185 73.5347 34.8122L72.7129 34.2426C72.6164 34.3818 72.5924 34.3716 72.6171 34.3623C72.6209 34.3608 72.6112 34.3656 72.5674 34.3689C72.5191 34.3726 72.4591 34.3729 72.3576 34.3729V35.3729ZM71.6356 35.0306C71.7173 35.1076 71.9681 35.3729 72.3576 35.3729V34.3729C72.3729 34.3729 72.3884 34.3756 72.4017 34.3799C72.4139 34.3839 72.4192 34.3877 72.4163 34.3859C72.4128 34.3836 72.4037 34.3774 72.3868 34.3628C72.3689 34.3475 72.3501 34.3299 72.3214 34.3028L71.6356 35.0306ZM71.6288 34.9719C71.653 34.9594 71.6515 34.9648 71.6295 34.9667C71.6187 34.9676 71.6057 34.9674 71.5918 34.9654C71.578 34.9633 71.5663 34.9599 71.5575 34.9565C71.5413 34.9503 71.5393 34.9459 71.5554 34.9585C71.5632 34.9645 71.5732 34.973 71.587 34.9855C71.6012 34.9983 71.616 35.0122 71.6356 35.0306L72.3214 34.3028C72.2622 34.247 72.1158 34.0998 71.9162 34.0231C71.6713 33.9289 71.4153 33.9569 71.1707 34.0829L71.6288 34.9719ZM71.1132 36.4488C71.2691 35.9816 71.4019 35.5843 71.5206 35.2897C71.5801 35.142 71.6294 35.0371 71.6687 34.9694C71.722 34.8776 71.7156 34.9271 71.6288 34.9719L71.1707 34.0829C70.9798 34.1813 70.8647 34.3626 70.804 34.4672C70.7293 34.5958 70.6592 34.7518 70.593 34.9161C70.4604 35.2454 70.3169 35.676 70.1646 36.1323L71.1132 36.4488ZM69.4516 40.2091C69.8298 39.7103 70.1456 39.0581 70.4126 38.4029C70.6815 37.7429 70.9137 37.0466 71.1132 36.4488L70.1646 36.1323C69.9634 36.735 69.7411 37.4006 69.4865 38.0256C69.2299 38.6554 68.9532 39.2112 68.6547 39.605L69.4516 40.2091ZM67.8254 42.0466C68.2205 41.6541 68.7696 41.1088 69.4516 40.2091L68.6547 39.605C68.0155 40.4482 67.5058 40.9545 67.1207 41.3371L67.8254 42.0466ZM67.2442 42.7074C67.3294 42.5464 67.4884 42.3813 67.8254 42.0466L67.1207 41.3371C66.8238 41.632 66.5327 41.914 66.3603 42.2397L67.2442 42.7074ZM66.5803 44.5573C66.5968 44.4207 66.6866 44.0974 66.8246 43.7078C66.9585 43.3298 67.1168 42.9482 67.2442 42.7074L66.3603 42.2397C66.2004 42.5418 66.0234 42.9746 65.882 43.3739C65.7446 43.7616 65.6189 44.1787 65.5875 44.4369L66.5803 44.5573ZM66.5652 44.6958C66.5711 44.6389 66.5758 44.5945 66.5803 44.5573L65.5875 44.4369C65.5818 44.484 65.5763 44.5374 65.5706 44.5917L66.5652 44.6958ZM65.8287 47.5975C66.4098 46.1693 66.5141 45.1836 66.5652 44.6957L65.5706 44.5918C65.5243 45.0341 65.4335 45.9154 64.9024 47.2206L65.8287 47.5975ZM64.1695 50.6309C64.8507 49.4732 65.5433 48.2988 65.8287 47.5975L64.9024 47.2206C64.652 47.8361 64.0106 48.929 63.3076 50.1238L64.1695 50.6309ZM62.2167 54.3646C62.2395 54.247 62.3057 54.0557 62.4255 53.7878C62.542 53.5273 62.6971 53.2207 62.8801 52.8807C63.2463 52.2003 63.7101 51.4118 64.1695 50.6309L63.3076 50.1238C62.8509 50.9001 62.3766 51.7062 61.9995 52.4068C61.8109 52.7573 61.6431 53.0878 61.5126 53.3796C61.3854 53.664 61.2804 53.9403 61.235 54.1741L62.2167 54.3646ZM62.2427 70.8274C62.2449 70.8331 62.2395 70.8188 62.2303 70.7712C62.222 70.7275 62.213 70.6689 62.2036 70.5939C62.185 70.4439 62.1672 70.2452 62.1507 70.0011C62.1178 69.5139 62.0913 68.8669 62.0708 68.1092C62.0298 66.595 62.0134 64.6569 62.0163 62.7099C62.0193 60.7632 62.0418 58.8113 62.0783 57.2703C62.0966 56.4995 62.1184 55.8339 62.1429 55.3241C62.1682 54.7974 62.1951 54.4762 62.2167 54.3646L61.235 54.1741C61.1968 54.3711 61.1683 54.7717 61.144 55.276C61.119 55.7973 61.097 56.4719 61.0786 57.2466C61.0418 58.7965 61.0193 60.7559 61.0164 62.7083C61.0134 64.6603 61.0298 66.6089 61.0712 68.1362C61.0918 68.8993 61.1188 69.5617 61.153 70.0685C61.1701 70.3215 61.1894 70.541 61.2113 70.7173C61.2313 70.8781 61.2584 71.0486 61.3048 71.1741L62.2427 70.8274ZM62.4968 71.5521C62.4149 71.3121 62.3303 71.0641 62.2427 70.8274L61.3048 71.1741C61.3872 71.397 61.4677 71.6328 61.5504 71.8752L62.4968 71.5521ZM63.2635 73.2604C63.1973 73.2126 63.0772 73.0526 62.9232 72.7042C62.7797 72.3796 62.6433 71.9812 62.4968 71.5521L61.5504 71.8752C61.6929 72.2926 61.8439 72.7359 62.0086 73.1086C62.1629 73.4574 62.3721 73.8503 62.6785 74.0714L63.2635 73.2604ZM64.3724 73.8198C64.1224 73.7038 63.8846 73.5935 63.6829 73.4933C63.4733 73.3891 63.3334 73.3108 63.2635 73.2604L62.6785 74.0714C62.8223 74.1752 63.0297 74.2854 63.238 74.3888C63.4542 74.4962 63.705 74.6125 63.9517 74.7269L64.3724 73.8198ZM65.9638 74.6996C65.873 74.606 65.755 74.5254 65.6508 74.461C65.5393 74.3921 65.4096 74.3213 65.2737 74.2514C65.0023 74.1118 64.678 73.9615 64.3724 73.8198L63.9517 74.7269C64.2625 74.8711 64.5668 75.0123 64.8164 75.1407C64.9409 75.2048 65.0448 75.2621 65.125 75.3116C65.1648 75.3362 65.1953 75.3568 65.2176 75.3733C65.2412 75.3908 65.2484 75.3983 65.2462 75.396L65.9638 74.6996ZM65.7008 75.8375C66.1409 76.0748 66.141 76.0746 66.1411 76.0744C66.1411 76.0743 66.1413 76.0741 66.1413 76.074C66.1415 76.0737 66.1416 76.0734 66.1418 76.0731C66.1421 76.0725 66.1424 76.0719 66.1428 76.0713C66.1435 76.07 66.1442 76.0686 66.145 76.067C66.1466 76.064 66.1484 76.0604 66.1504 76.0564C66.1545 76.0483 66.1593 76.0383 66.1647 76.0266C66.1755 76.0031 66.1888 75.972 66.2025 75.9345C66.2295 75.8607 66.2606 75.7554 66.2752 75.6301C66.3051 75.3734 66.2649 75.0099 65.9638 74.6996L65.2462 75.396C65.2803 75.4312 65.288 75.4625 65.282 75.5144C65.2786 75.5433 65.2708 75.5706 65.2634 75.5909C65.2599 75.6004 65.2571 75.6068 65.2561 75.6089C65.2556 75.61 65.2556 75.6099 65.2563 75.6085C65.2567 75.6078 65.2572 75.6068 65.2579 75.6054C65.2583 75.6047 65.2587 75.604 65.2591 75.6031C65.2594 75.6027 65.2596 75.6022 65.2598 75.6017C65.26 75.6015 65.2601 75.6013 65.2602 75.601C65.2603 75.6009 65.2604 75.6007 65.2604 75.6006C65.2605 75.6004 65.2607 75.6003 65.7008 75.8375ZM60.4328 76.3375H65.7008V75.3375H60.4328V76.3375ZM60.0286 74.3075C60.0286 74.4835 60.0063 74.847 59.982 75.1847C59.9701 75.3496 59.9583 75.5025 59.9494 75.6142C59.9449 75.67 59.9412 75.7155 59.9386 75.7469C59.9373 75.7626 59.9363 75.7749 59.9356 75.7831C59.9353 75.7872 59.935 75.7904 59.9348 75.7924C59.9348 75.7935 59.9347 75.7943 59.9347 75.7948C59.9346 75.795 59.9346 75.7952 59.9346 75.7953C59.9346 75.7954 59.9346 75.7954 59.9346 75.7954C59.9346 75.7955 59.9346 75.7955 59.9346 75.7955C59.9346 75.7955 59.9346 75.7955 60.4328 75.8375C60.9311 75.8796 60.9311 75.8795 60.9311 75.8795C60.9311 75.8795 60.9311 75.8795 60.9311 75.8795C60.9311 75.8794 60.9311 75.8794 60.9311 75.8793C60.9311 75.8791 60.9311 75.8789 60.9311 75.8786C60.9312 75.878 60.9313 75.8772 60.9313 75.876C60.9315 75.8738 60.9318 75.8705 60.9322 75.8662C60.9329 75.8576 60.9339 75.8451 60.9353 75.829C60.9379 75.7968 60.9417 75.7505 60.9462 75.6937C60.9553 75.5802 60.9673 75.4247 60.9794 75.2564C61.003 74.9279 61.0286 74.5264 61.0286 74.3075L60.0286 74.3075ZM59.3964 72.9165C59.3825 72.9051 59.425 72.946 59.5147 73.0946C59.5914 73.2217 59.6776 73.3847 59.7586 73.5574C59.8397 73.7302 59.9114 73.9039 59.9616 74.0519C59.9867 74.1258 60.0048 74.1883 60.0161 74.2377C60.0283 74.2911 60.0286 74.3116 60.0286 74.3075L61.0286 74.3075C61.0286 74.1202 60.9678 73.9049 60.9085 73.7303C60.8435 73.5389 60.7566 73.3301 60.664 73.1328C60.5714 72.9353 60.4691 72.7405 60.3707 72.5776C60.2853 72.4363 60.1661 72.2551 60.0325 72.1449L59.3964 72.9165ZM59.3984 72.9632C59.4147 72.9616 59.4275 72.9604 59.4397 72.9594C59.4517 72.9584 59.4609 72.9577 59.4686 72.9574C59.4845 72.9566 59.4885 72.9573 59.4857 72.957C59.4819 72.9566 59.4686 72.9548 59.4502 72.9477C59.4308 72.9402 59.4121 72.9294 59.3964 72.9165L60.0325 72.1449C59.7399 71.9037 59.3932 71.959 59.3017 71.9679L59.3984 72.9632ZM58.5284 72.6049C58.6538 72.7987 58.8308 72.9121 59.0266 72.9542C59.1852 72.9883 59.3407 72.9688 59.3984 72.9632L59.3017 71.9679C59.2606 71.9719 59.2415 71.9735 59.2263 71.9739C59.2129 71.9742 59.2195 71.9728 59.2368 71.9765C59.257 71.9809 59.2864 71.991 59.3165 72.0116C59.3464 72.0321 59.3624 72.053 59.368 72.0617L58.5284 72.6049ZM58.3694 69.4127C58.3617 70.1366 58.3543 70.8312 58.3626 71.3655C58.3667 71.6319 58.3748 71.868 58.3898 72.0522C58.3973 72.1437 58.4072 72.2322 58.4214 72.3097C58.4313 72.3642 58.4556 72.4923 58.5284 72.6049L59.368 72.0617C59.4139 72.1326 59.4149 72.1837 59.405 72.1297C59.3994 72.0987 59.3927 72.0473 59.3865 71.9711C59.3742 71.82 59.3665 71.6101 59.3625 71.3501C59.3545 70.8317 59.3616 70.152 59.3694 69.4233L58.3694 69.4127ZM58.353 66.2375C58.3939 67.0808 58.3814 68.2823 58.3694 69.4127L59.3694 69.4233C59.3812 68.3045 59.3945 67.0687 59.3519 66.1891L58.353 66.2375ZM57.9138 63.1457C58.1252 64.2856 58.3058 65.2644 58.353 66.2375L59.3519 66.1891C59.3008 65.1364 59.1058 64.0894 58.897 62.9634L57.9138 63.1457ZM57.3492 59.4522C57.4915 60.8692 57.7145 62.0711 57.9138 63.1457L58.897 62.9634C58.6976 61.8877 58.4818 60.7231 58.3442 59.3524L57.3492 59.4522ZM57.1495 56.3897C57.1562 56.8495 57.1684 57.6508 57.3492 59.4522L58.3442 59.3524C58.1666 57.5826 58.1557 56.8099 58.1494 56.3751L57.1495 56.3897ZM57.1185 55.9048C57.1421 56.0143 57.1453 56.1081 57.1495 56.3897L58.1494 56.3751C58.1456 56.1172 58.1445 55.9187 58.0961 55.694L57.1185 55.9048ZM57.1754 55.9889C57.1971 56.0026 57.1967 56.0026 57.1937 56.0004C57.1872 55.9955 57.1719 55.9831 57.1555 55.9633C57.1387 55.9431 57.1277 55.9238 57.1215 55.9097C57.1159 55.8972 57.1161 55.8935 57.1185 55.9048L58.0961 55.694C58.0681 55.5642 58.0178 55.4363 57.9244 55.324C57.8377 55.2197 57.7361 55.1602 57.7073 55.1421L57.1754 55.9889ZM56.4421 54.3421C56.5239 54.8983 56.6229 55.2613 56.7461 55.5099C56.8108 55.6404 56.8849 55.7451 56.9709 55.8306C57.0557 55.9151 57.1379 55.9654 57.1754 55.9889L57.7073 55.1421C57.6878 55.1298 57.6823 55.1262 57.678 55.1231C57.6772 55.1225 57.6767 55.1221 57.6764 55.1219C57.6761 55.1217 57.676 55.1216 57.676 55.1216C57.676 55.1216 57.676 55.1216 57.6761 55.1216C57.6761 55.1217 57.6762 55.1218 57.6762 55.1217C57.6762 55.1217 57.676 55.1216 57.6758 55.1214C57.6756 55.1211 57.6752 55.1207 57.6746 55.12C57.6735 55.1187 57.6716 55.1163 57.6688 55.1124C57.6634 55.1046 57.6541 55.09 57.642 55.0657C57.589 54.9587 57.5083 54.7193 57.4315 54.1967L56.4421 54.3421ZM57.3545 51.8348C57.1695 52.0099 56.8752 52.2839 56.6662 52.6951C56.4507 53.1191 56.341 53.654 56.4421 54.3421L57.4315 54.1967C57.3583 53.699 57.4424 53.3751 57.5577 53.1483C57.6795 52.9086 57.853 52.7399 58.0419 52.5611L57.3545 51.8348ZM57.5205 51.68C57.5333 51.6449 57.5448 51.6421 57.5091 51.6822C57.4752 51.72 57.4288 51.7645 57.3545 51.8348L58.0419 52.5611C58.1073 52.4992 58.1874 52.4238 58.255 52.3482C58.3207 52.2746 58.4084 52.1645 58.4603 52.022L57.5205 51.68ZM58.0862 51.0678C57.9726 51.0678 57.8589 51.0148 57.7847 50.9248C57.7546 50.8882 57.7388 50.8549 57.7309 50.835C57.7231 50.815 57.7206 50.8018 57.7202 50.7992C57.7196 50.796 57.7221 50.8103 57.7205 50.8483C57.719 50.8841 57.7143 50.9298 57.7058 50.985C57.6705 51.2138 57.5855 51.5015 57.5205 51.68L58.4603 52.022C58.539 51.8056 58.6456 51.4517 58.6941 51.1376C58.717 50.9891 58.7355 50.7991 58.7051 50.6262C58.6899 50.5399 58.6544 50.4077 58.5562 50.2886C58.4407 50.1485 58.2716 50.0678 58.0862 50.0678V51.0678ZM57.8124 51.1973C57.9135 51.1452 57.9819 51.1104 58.0404 51.0867C58.1005 51.0624 58.1085 51.0678 58.0862 51.0678V50.0678C57.9202 50.0678 57.7726 50.1163 57.6651 50.1598C57.556 50.204 57.4447 50.2618 57.3543 50.3084L57.8124 51.1973ZM57.0378 51.5017C57.3548 51.4363 57.6294 51.2916 57.8124 51.1973L57.3543 50.3084C57.1542 50.4115 56.9978 50.4889 56.8359 50.5222L57.0378 51.5017ZM56.1726 51.5528C56.4537 51.5515 56.7921 51.5523 57.0378 51.5017L56.8359 50.5222C56.7119 50.5478 56.4951 50.5513 56.1678 50.5529L56.1726 51.5528ZM54.979 51.6688C55.0804 51.6253 55.2421 51.592 55.4677 51.5735C55.6876 51.5554 55.9268 51.554 56.1726 51.5528L56.1678 50.5529C55.9295 50.554 55.651 50.5551 55.3859 50.5768C55.1265 50.5981 54.836 50.6419 54.5845 50.7499L54.979 51.6688ZM53.8946 53.3431C54.0128 53.0957 54.2043 52.6955 54.4276 52.3311C54.5393 52.1489 54.6518 51.9876 54.7591 51.864C54.8732 51.7325 54.9491 51.6817 54.979 51.6688L54.5845 50.7499C54.3487 50.8512 54.1538 51.0357 54.0039 51.2085C53.847 51.3892 53.7022 51.601 53.575 51.8085C53.3207 52.2233 53.1087 52.6682 52.9922 52.9123L53.8946 53.3431ZM53.8428 53.4512C53.858 53.4197 53.8757 53.3828 53.8946 53.3431L52.9922 52.9122C52.9728 52.9528 52.9567 52.9866 52.9431 53.0147L53.8428 53.4512ZM53.6912 57.5254C53.6101 57.1284 53.6045 56.1915 53.6528 55.2513C53.6764 54.7934 53.7115 54.3558 53.7518 54.0123C53.7721 53.84 53.7929 53.6968 53.8132 53.589C53.8368 53.4636 53.8514 53.4335 53.8428 53.4512L52.9431 53.0147C52.8866 53.1311 52.8533 53.2829 52.8305 53.4041C52.8043 53.5429 52.7803 53.7109 52.7587 53.8957C52.7152 54.2662 52.6785 54.7263 52.6541 55.2C52.6067 56.123 52.601 57.1849 52.7115 57.7256L53.6912 57.5254ZM55.3118 63.5869C54.6848 61.2997 53.8105 58.1094 53.6912 57.5254L52.7115 57.7256C52.8395 58.3523 53.7291 61.5961 54.3474 63.8513L55.3118 63.5869ZM55.9431 65.9206C55.9299 65.8529 55.8514 65.5616 55.7452 65.1712C55.6343 64.7632 55.4827 64.2103 55.3118 63.5869L54.3474 63.8513C54.5184 64.4751 54.6697 65.0269 54.7803 65.4336C54.8356 65.6371 54.8806 65.8034 54.9127 65.924C54.9287 65.9845 54.9413 66.0324 54.9502 66.0673C54.9609 66.1087 54.9627 66.1177 54.9614 66.1111L55.9431 65.9206ZM55.8801 67.8478C55.9236 67.7132 55.9445 67.5347 55.9572 67.3832C55.9711 67.217 55.979 67.028 55.9821 66.8449C55.9879 66.5013 55.9786 66.1037 55.9431 65.9206L54.9614 66.1111C54.9612 66.1105 54.9624 66.1164 54.9641 66.1311C54.9658 66.1451 54.9676 66.1634 54.9694 66.1863C54.9731 66.2323 54.9763 66.2905 54.9787 66.3585C54.9836 66.4944 54.9851 66.6598 54.9822 66.8279C54.9794 66.9965 54.9722 67.1622 54.9607 67.2998C54.9549 67.3686 54.9484 67.4265 54.9415 67.472C54.934 67.5214 54.9284 67.5408 54.9286 67.5401L55.8801 67.8478ZM54.9858 68.8943C55.1052 68.7961 55.2854 68.6483 55.4478 68.4849C55.5968 68.335 55.7951 68.1104 55.8801 67.8478L54.9286 67.5401C54.9289 67.5392 54.9268 67.5458 54.9187 67.5604C54.9107 67.5749 54.8988 67.5937 54.8817 67.6171C54.8468 67.6646 54.7987 67.7194 54.7385 67.78C54.6168 67.9025 54.4748 68.0198 54.3504 68.1222L54.9858 68.8943ZM54.9561 68.9188C54.9656 68.9109 54.9755 68.9028 54.9858 68.8943L54.3504 68.1221C54.3402 68.1306 54.33 68.139 54.32 68.1472L54.9561 68.9188ZM51.3147 70.7939C51.3697 70.7798 51.4277 70.7549 51.4541 70.7436C51.4934 70.7268 51.5409 70.7054 51.5935 70.681C51.6995 70.6319 51.8376 70.5655 51.9957 70.4882C52.3125 70.3331 52.7178 70.1297 53.1237 69.922C53.5296 69.7145 53.9385 69.5014 54.2622 69.3272C54.4237 69.2403 54.5666 69.1616 54.6783 69.0974C54.7734 69.0427 54.8872 68.9756 54.9561 68.9188L54.32 68.1472C54.3291 68.1397 54.2962 68.1636 54.1798 68.2305C54.0798 68.288 53.9462 68.3616 53.7883 68.4467C53.4729 68.6164 53.0707 68.8259 52.6684 69.0317C52.2662 69.2374 51.8663 69.4381 51.5561 69.59C51.4006 69.6661 51.2697 69.7289 51.1731 69.7737C51.1245 69.7962 51.0872 69.8129 51.0611 69.8241C51.0222 69.8407 51.0341 69.8336 51.0652 69.8256L51.3147 70.7939ZM48.0781 71.0188C48.1636 71.054 48.2481 71.0639 48.2875 71.0679C48.3394 71.0733 48.3947 71.0755 48.4482 71.0762C48.556 71.0777 48.6865 71.0734 48.8263 71.0658C49.1075 71.0506 49.4558 71.0204 49.7972 70.9862C50.1396 70.9518 50.4805 70.9128 50.7486 70.8791C50.9944 70.8483 51.2276 70.8164 51.3147 70.7939L51.0652 69.8256C51.0731 69.8235 51.0431 69.8298 50.9474 69.8438C50.8648 69.8558 50.7543 69.8706 50.6241 69.8869C50.364 69.9196 50.0314 69.9576 49.6974 69.9912C49.3623 70.0248 49.0312 70.0532 48.7721 70.0673C48.6417 70.0744 48.5369 70.0774 48.4619 70.0763C48.4241 70.0758 48.4011 70.0743 48.3901 70.0732C48.3666 70.0708 48.4036 70.0714 48.4592 70.0943L48.0781 71.0188ZM47.1552 69.566C47.1929 69.7601 47.3147 70.0573 47.4427 70.3014C47.51 70.4297 47.5902 70.5649 47.6782 70.6814C47.7509 70.7777 47.8852 70.9393 48.0781 71.0188L48.4592 70.0943C48.5062 70.1137 48.5255 70.1347 48.5171 70.1269C48.5118 70.1219 48.4977 70.1072 48.476 70.0785C48.4323 70.0207 48.3808 69.9369 48.3283 69.8369C48.2169 69.6244 48.1471 69.4281 48.1369 69.3755L47.1552 69.566ZM47.1343 69.4628C47.1429 69.5047 47.1499 69.5383 47.1552 69.566L48.1369 69.3755C48.1302 69.3406 48.1219 69.3005 48.1136 69.2604L47.1343 69.4628ZM47.0842 68.204C47.0325 68.3372 47.0205 68.4749 47.0184 68.5788C47.0162 68.6897 47.025 68.8033 47.0374 68.9071C47.0618 69.1137 47.1057 69.3246 47.1343 69.4628L48.1136 69.2604C48.0838 69.1163 48.049 68.9466 48.0304 68.7893C48.0211 68.7112 48.0173 68.647 48.0182 68.5986C48.0193 68.5434 48.0263 68.5404 48.0164 68.5658L47.0842 68.204ZM48.4644 66.7883C48.3569 66.8622 48.0556 67.122 47.7887 67.3726C47.6497 67.5032 47.5066 67.6437 47.3893 67.7714C47.3309 67.835 47.274 67.9008 47.2257 67.9641C47.1841 68.0187 47.1227 68.1047 47.0842 68.204L48.0164 68.5658C48.0018 68.6034 47.9913 68.6093 48.021 68.5703C48.044 68.5402 48.0788 68.4991 48.1259 68.4478C48.2196 68.3457 48.3429 68.224 48.4732 68.1016C48.6026 67.9802 48.7336 67.8629 48.8404 67.7706C48.8937 67.7245 48.9398 67.6856 48.9756 67.6563C49.0158 67.6234 49.032 67.6116 49.0307 67.6125L48.4644 66.7883ZM50.1843 66.4536C49.9967 66.4536 49.6386 66.4969 49.3322 66.5464C49.1732 66.5721 49.0128 66.602 48.8786 66.6333C48.812 66.6488 48.7451 66.6663 48.6852 66.6856C48.6398 66.7003 48.5472 66.7314 48.4644 66.7883L49.0307 67.6125C48.9838 67.6447 48.9541 67.6496 48.9923 67.6373C49.016 67.6296 49.0535 67.6193 49.1059 67.6071C49.2096 67.5829 49.3455 67.5572 49.4918 67.5336C49.7961 67.4844 50.0845 67.4536 50.1843 67.4536V66.4536ZM50.6318 66.5279C50.53 66.5017 50.3566 66.4536 50.1843 66.4536V67.4536C50.2035 67.4536 50.2429 67.4604 50.3823 67.4963L50.6318 66.5279ZM51.3047 66.5681C51.0552 66.6324 50.8667 66.5884 50.6318 66.5279L50.3823 67.4963C50.63 67.5601 51.0374 67.6697 51.5542 67.5365L51.3047 66.5681ZM51.5562 65.7934C51.5205 66.0371 51.4878 66.2432 51.4244 66.403C51.3639 66.5556 51.3166 66.5651 51.3047 66.5681L51.5542 67.5365C52.0074 67.4197 52.2369 67.0669 52.354 66.7716C52.4682 66.4836 52.5137 66.1564 52.5456 65.9384L51.5562 65.7934ZM51.6111 65.4663C51.5886 65.5707 51.5714 65.6897 51.5562 65.7934L52.5456 65.9384C52.5623 65.8246 52.5747 65.742 52.5887 65.6771L51.6111 65.4663ZM50.2221 60.23C50.3291 60.4306 50.4789 60.8335 50.6461 61.369C50.8095 61.8922 50.9791 62.5075 51.1301 63.1085C51.2811 63.7098 51.412 64.2908 51.4988 64.7454C51.5423 64.9734 51.5735 65.1636 51.591 65.3059C51.5997 65.3773 51.6043 65.4305 51.6057 65.467C51.6076 65.5138 51.6031 65.5034 51.6111 65.4663L52.5887 65.6771C52.6086 65.5844 52.6075 65.4895 52.6049 65.4264C52.6019 65.3529 52.5941 65.2704 52.5835 65.1841C52.5623 65.0108 52.5265 64.7965 52.481 64.5579C52.3897 64.0794 52.2542 63.4789 52.0999 62.8649C51.9456 62.2506 51.771 61.6165 51.6006 61.0709C51.4341 60.5376 51.2606 60.0521 51.1043 59.7591L50.2221 60.23ZM48.5396 54.0419C48.5681 54.2469 48.8512 55.534 49.1844 56.8648C49.3529 57.5376 49.5375 58.2348 49.714 58.8284C49.8857 59.4058 50.063 59.9318 50.2221 60.23L51.1043 59.7591C51 59.5637 50.848 59.1335 50.6725 58.5434C50.5018 57.9694 50.3212 57.2878 50.1545 56.6218C49.9879 55.9567 49.8361 55.3111 49.7232 54.8109C49.6666 54.5607 49.62 54.3478 49.5862 54.1875C49.5693 54.1073 49.5558 54.0413 49.546 53.991C49.5411 53.9658 49.5372 53.9455 49.5344 53.9298C49.533 53.9221 49.532 53.9159 49.5312 53.9113C49.5304 53.9065 49.5301 53.9045 49.5302 53.9046L48.5396 54.0419ZM48.3213 53.839C48.419 53.9389 48.483 54.0051 48.5273 54.0607C48.537 54.073 48.5441 54.0826 48.549 54.0899C48.5515 54.0934 48.5532 54.0962 48.5544 54.0981C48.555 54.0991 48.5554 54.0998 48.5557 54.1003C48.5558 54.1005 48.5559 54.1007 48.556 54.1008C48.5561 54.101 48.5561 54.101 48.5561 54.101C48.5561 54.101 48.5561 54.101 48.556 54.1008C48.5559 54.1007 48.5558 54.1005 48.5557 54.1002C48.5554 54.0997 48.555 54.0988 48.5545 54.0977C48.5535 54.0955 48.552 54.092 48.5503 54.0872C48.547 54.0777 48.5425 54.0624 48.5396 54.0419L49.5302 53.9046C49.5013 53.6962 49.3863 53.5342 49.31 53.4383C49.227 53.3339 49.1226 53.228 49.036 53.1395L48.3213 53.839ZM47.4894 52.4834C47.6066 53.1279 48.068 53.5802 48.3213 53.839L49.036 53.1395C48.7464 52.8437 48.5271 52.6004 48.4732 52.3044L47.4894 52.4834ZM47.9813 50.5678C47.486 50.4991 47.486 50.4992 47.486 50.4992C47.486 50.4993 47.486 50.4993 47.486 50.4994C47.486 50.4995 47.486 50.4996 47.486 50.4998C47.4859 50.5 47.4859 50.5004 47.4858 50.5008C47.4857 50.5016 47.4856 50.5027 47.4854 50.504C47.485 50.5066 47.4845 50.5102 47.4839 50.5148C47.4828 50.5239 47.4811 50.5368 47.4791 50.5532C47.4751 50.586 47.4697 50.6328 47.4637 50.6911C47.4518 50.8073 47.4376 50.9704 47.4281 51.1596C47.4094 51.5309 47.4073 52.0323 47.4894 52.4834L48.4732 52.3044C48.4116 51.9658 48.4095 51.5541 48.4268 51.2098C48.4353 51.0412 48.448 50.8958 48.4585 50.793C48.4638 50.7418 48.4684 50.7014 48.4717 50.6744C48.4734 50.6609 48.4747 50.6508 48.4755 50.6444C48.4759 50.6412 48.4762 50.6389 48.4764 50.6375C48.4765 50.6368 48.4766 50.6364 48.4766 50.6362C48.4766 50.6361 48.4766 50.6361 48.4766 50.6361C48.4766 50.6361 48.4766 50.6362 48.4766 50.6362C48.4766 50.6362 48.4766 50.6363 48.4766 50.6363C48.4766 50.6364 48.4766 50.6364 47.9813 50.5678ZM46.3573 50.2687L47.7461 51.009L48.2165 50.1265L46.8277 49.3862L46.3573 50.2687ZM46.6573 54.0374C46.7063 53.6586 46.8149 52.6135 46.9103 51.6732C46.9583 51.2008 47.0032 50.7517 47.0362 50.4206C47.0526 50.2551 47.0661 50.1191 47.0755 50.0244C47.0801 49.9771 47.0838 49.9401 47.0863 49.915C47.0875 49.9024 47.0885 49.8927 47.0891 49.8863C47.0894 49.883 47.0897 49.8806 47.0898 49.8789C47.0899 49.8781 47.09 49.8775 47.09 49.8771C47.09 49.8768 47.0901 49.8767 47.0901 49.8766C47.0901 49.8765 47.0901 49.8765 47.0901 49.8765C47.0901 49.8764 47.0901 49.8764 46.5925 49.8274C46.0949 49.7785 46.0949 49.7785 46.0949 49.7785C46.0949 49.7785 46.0949 49.7786 46.0949 49.7786C46.0949 49.7787 46.0949 49.7789 46.0948 49.7791C46.0948 49.7795 46.0947 49.7801 46.0947 49.7809C46.0945 49.7825 46.0943 49.785 46.0939 49.7882C46.0933 49.7946 46.0924 49.8042 46.0911 49.8168C46.0886 49.8419 46.085 49.8788 46.0803 49.926C46.071 50.0205 46.0575 50.1563 46.0411 50.3216C46.0082 50.6522 45.9633 51.1007 45.9155 51.5722C45.8193 52.5198 45.7124 53.5475 45.6656 53.9091L46.6573 54.0374ZM43.7091 58.5844C43.9836 58.4014 44.2916 58.0619 44.5798 57.6989C44.8794 57.3216 45.1961 56.869 45.4871 56.4144C45.7781 55.9598 46.0486 55.4952 46.2544 55.092C46.3571 54.8907 46.4464 54.6995 46.5144 54.5292C46.5791 54.3672 46.6371 54.1937 46.6573 54.0374L45.6656 53.9091C45.6619 53.9379 45.642 54.0174 45.5857 54.1584C45.5327 54.2912 45.4577 54.4532 45.3637 54.6374C45.1758 55.0055 44.9225 55.4416 44.6449 55.8753C44.3672 56.3091 44.0702 56.7326 43.7967 57.0771C43.5117 57.4359 43.2869 57.664 43.1543 57.7524L43.7091 58.5844ZM39.7641 60.481C39.9654 60.4331 40.2642 60.3185 40.5828 60.1835C40.9125 60.0437 41.2973 59.8674 41.6857 59.6798C42.4543 59.3085 43.2713 58.8764 43.7091 58.5844L43.1543 57.7524C42.778 58.0033 42.0146 58.4103 41.2507 58.7793C40.8729 58.9619 40.5034 59.131 40.1926 59.2627C39.8707 59.3992 39.6426 59.482 39.5327 59.5081L39.7641 60.481ZM39.1356 60.6183C39.3763 60.5673 39.6013 60.5197 39.7641 60.481L39.5327 59.5081C39.3849 59.5433 39.1743 59.5879 38.9284 59.64L39.1356 60.6183ZM37.4761 61.022C37.4462 61.0466 37.432 61.0491 37.4639 61.0348C37.4887 61.0237 37.5273 61.0088 37.5821 60.9905C37.6913 60.9541 37.8371 60.9134 38.0095 60.8702C38.3533 60.7841 38.7673 60.6963 39.1356 60.6183L38.9284 59.64C38.5647 59.717 38.1316 59.8087 37.7664 59.9002C37.5842 59.9459 37.4101 59.9937 37.2654 60.042C37.1932 60.0661 37.1215 60.0926 37.0564 60.1216C36.9985 60.1475 36.9149 60.1887 36.84 60.2504L37.4761 61.022ZM35.6256 65.9172C36.1101 66.0404 36.1101 66.0404 36.1102 66.0404C36.1102 66.0403 36.1102 66.0403 36.1102 66.0402C36.1102 66.0401 36.1103 66.0398 36.1104 66.0395C36.1105 66.039 36.1107 66.0381 36.111 66.0369C36.1117 66.0345 36.1126 66.0309 36.1138 66.0261C36.1162 66.0166 36.1198 66.0024 36.1246 65.9838C36.1341 65.9467 36.148 65.8923 36.1659 65.8228C36.2016 65.6839 36.2529 65.485 36.3152 65.2458C36.4399 64.7672 36.6085 64.1275 36.7844 63.4822C36.9606 62.8358 37.143 62.188 37.2956 61.6914C37.3721 61.4421 37.4391 61.2377 37.4925 61.0929C37.5196 61.0195 37.5401 60.9701 37.5538 60.9409C37.5608 60.926 37.5624 60.9242 37.5586 60.9305C37.5565 60.9339 37.5504 60.9437 37.54 60.9569C37.5308 60.9687 37.5098 60.9942 37.4761 61.022L36.84 60.2504C36.7668 60.3107 36.7234 60.3796 36.7066 60.4069C36.6838 60.444 36.6646 60.4819 36.649 60.5151C36.6175 60.5821 36.5856 60.6621 36.5544 60.7467C36.4913 60.9176 36.418 61.1427 36.3396 61.3978C36.1824 61.9099 35.9966 62.57 35.8196 63.2192C35.6424 63.8694 35.4727 64.513 35.3475 64.9937C35.2849 65.2341 35.2333 65.434 35.1973 65.5739C35.1794 65.6438 35.1653 65.6987 35.1557 65.7362C35.1509 65.7549 35.1473 65.7693 35.1448 65.779C35.1435 65.7839 35.1426 65.7876 35.142 65.7901C35.1417 65.7913 35.1414 65.7923 35.1413 65.7929C35.1412 65.7932 35.1411 65.7935 35.1411 65.7936C35.141 65.7937 35.141 65.7938 35.141 65.7938C35.141 65.7939 35.141 65.7939 35.6256 65.9172ZM35.9727 68.339C35.9171 68.0521 35.9424 67.4951 35.9974 66.948C36.0235 66.6876 36.0541 66.4488 36.0782 66.275C36.0902 66.1882 36.1006 66.118 36.1079 66.0698C36.1115 66.0457 36.1144 66.0271 36.1163 66.0148C36.1173 66.0086 36.118 66.0039 36.1185 66.001C36.1188 65.9995 36.1189 65.9984 36.119 65.9977C36.1191 65.9974 36.1191 65.9971 36.1192 65.997C36.1192 65.997 36.1192 65.9969 36.1192 65.9969C36.1192 65.9969 36.1192 65.9969 36.1192 65.9969C36.1192 65.9969 36.1192 65.997 35.6256 65.9172C35.132 65.8373 35.132 65.8374 35.132 65.8374C35.132 65.8374 35.132 65.8375 35.1319 65.8375C35.1319 65.8376 35.1319 65.8378 35.1319 65.8379C35.1318 65.8382 35.1318 65.8387 35.1317 65.8392C35.1315 65.8402 35.1313 65.8417 35.131 65.8436C35.1304 65.8474 35.1295 65.8528 35.1284 65.8598C35.1262 65.8738 35.1231 65.8941 35.1191 65.9201C35.1113 65.9719 35.1003 66.0463 35.0877 66.1377C35.0624 66.3201 35.0301 66.5719 35.0024 66.8481C34.9495 67.3746 34.9031 68.0761 34.9911 68.5295L35.9727 68.339ZM35.9795 70.15C36.0197 69.5266 36.0685 68.8324 35.9727 68.339L34.9911 68.5295C35.0563 68.8656 35.0256 69.4037 34.9816 70.0856L35.9795 70.15ZM35.9335 71.6203C35.9139 71.1751 35.946 70.6688 35.9795 70.15L34.9816 70.0856C34.9489 70.5913 34.912 71.1546 34.9345 71.6644L35.9335 71.6203ZM35.6256 74.8998C36.1245 74.8668 36.1245 74.8668 36.1245 74.8667C36.1245 74.8667 36.1245 74.8667 36.1245 74.8667C36.1245 74.8666 36.1245 74.8665 36.1245 74.8664C36.1244 74.8661 36.1244 74.8657 36.1244 74.8652C36.1243 74.8642 36.1242 74.8626 36.1241 74.8606C36.1238 74.8565 36.1234 74.8503 36.1229 74.8423C36.1218 74.8262 36.1202 74.8024 36.1182 74.7717C36.1142 74.7103 36.1084 74.6214 36.1013 74.5113C36.0871 74.2911 36.0677 73.9862 36.0468 73.6474C36.0049 72.9687 35.9573 72.1583 35.9335 71.6203L34.9345 71.6644C34.9587 72.2122 35.0068 73.0305 35.0487 73.709C35.0697 74.0489 35.0892 74.3548 35.1034 74.5756C35.1105 74.6861 35.1163 74.7753 35.1204 74.837C35.1224 74.8678 35.124 74.8917 35.125 74.9079C35.1256 74.9161 35.126 74.9223 35.1262 74.9264C35.1264 74.9285 35.1265 74.9301 35.1266 74.9312C35.1266 74.9317 35.1266 74.9321 35.1266 74.9324C35.1266 74.9325 35.1267 74.9326 35.1267 74.9327C35.1267 74.9327 35.1267 74.9327 35.1267 74.9327C35.1267 74.9328 35.1267 74.9328 35.6256 74.8998ZM33.4226 75.3998H35.6256V74.3998H33.4226V75.3998ZM32.7318 71.4726L32.9234 74.9274L33.9218 74.8721L33.7303 71.4172L32.7318 71.4726ZM32.3562 75.0807L33.6972 71.6258L32.7649 71.264L31.424 74.7188L32.3562 75.0807ZM30.6929 75.3998H31.8901V74.3998H30.6929V75.3998ZM39.5807 54.4179C39.6371 54.2872 39.6591 54.1367 39.6709 54.02C39.6839 53.8909 39.6892 53.7452 39.6905 53.5965C39.6931 53.2992 39.6798 52.9519 39.6677 52.6356L38.6685 52.6737C38.6808 52.9965 38.6929 53.3186 38.6906 53.5877C38.6894 53.7221 38.6846 53.8337 38.6759 53.9196C38.666 54.0177 38.6548 54.0396 38.6624 54.022L39.5807 54.4179ZM39.251 55.0672C39.3727 54.8397 39.5053 54.5927 39.5807 54.4179L38.6624 54.022C38.6079 54.1484 38.5005 54.3501 38.3692 54.5956L39.251 55.0672ZM38.7751 55.6265C38.8577 55.7542 38.8458 55.872 38.8451 55.8811C38.8431 55.907 38.8388 55.9155 38.8442 55.8975C38.8543 55.8637 38.878 55.8024 38.9205 55.7104C39.0038 55.5299 39.1254 55.3021 39.251 55.0672L38.3692 54.5956C38.2482 54.8219 38.1107 55.0785 38.0125 55.2915C37.9641 55.3963 37.9165 55.5091 37.8857 55.6123C37.8707 55.6628 37.8537 55.7307 37.848 55.8049C37.8436 55.8622 37.837 56.0174 37.9355 56.1695L38.7751 55.6265ZM39.5817 52.985C39.5761 52.9275 39.5917 52.9302 39.551 53.0467C39.5185 53.1396 39.4657 53.2624 39.394 53.4098C39.2514 53.703 39.052 54.057 38.8443 54.3977C38.6366 54.7383 38.4275 55.0544 38.2683 55.2719C38.1866 55.3836 38.128 55.4555 38.0948 55.4908C38.0729 55.514 38.0851 55.4966 38.1227 55.4727C38.136 55.4642 38.2075 55.418 38.3171 55.4066C38.3796 55.4001 38.4671 55.4038 38.5607 55.4446C38.6578 55.4869 38.729 55.5551 38.7751 55.6265L37.9355 56.1695C37.9846 56.2455 38.0595 56.317 38.1612 56.3613C38.2593 56.4041 38.352 56.4084 38.4205 56.4013C38.5421 56.3886 38.6284 56.3361 38.6593 56.3165C38.7319 56.2703 38.7898 56.2114 38.8229 56.1763C38.8995 56.0949 38.9872 55.9829 39.0753 55.8625C39.2559 55.6158 39.4807 55.2748 39.6981 54.9183C39.9154 54.5618 40.1321 54.1786 40.2933 53.8471C40.3735 53.6822 40.4445 53.5208 40.4949 53.3768C40.537 53.2564 40.5946 53.0693 40.577 52.8884L39.5817 52.985ZM39.3421 51.9403C39.2339 51.9682 39.1459 51.9488 39.1008 51.9339C39.0559 51.919 39.029 51.9008 39.0225 51.8963C39.0103 51.8878 39.0197 51.8923 39.0505 51.9273C39.1085 51.9933 39.1878 52.1049 39.2716 52.2469C39.3537 52.3862 39.4309 52.5391 39.4889 52.6802C39.5501 52.8292 39.5767 52.9336 39.5817 52.985L40.577 52.8884C40.5581 52.6931 40.4889 52.4829 40.4139 52.3003C40.3357 52.1098 40.2363 51.9141 40.1329 51.7388C40.031 51.5661 39.9158 51.3971 39.8017 51.2672C39.7464 51.2043 39.6754 51.1321 39.5923 51.0745C39.5366 51.0359 39.3425 50.9076 39.0926 50.972L39.3421 51.9403ZM39.6677 52.6356C39.6558 52.3227 39.6454 52.0447 39.6486 51.8416C39.6503 51.7372 39.6554 51.6763 39.6599 51.6489C39.6627 51.6324 39.661 51.6545 39.6441 51.6927C39.6375 51.7075 39.5622 51.8836 39.3421 51.9403L39.0926 50.972C38.8489 51.0348 38.7538 51.2337 38.7305 51.2861C38.6968 51.3618 38.6815 51.4363 38.6734 51.4852C38.6563 51.5887 38.6506 51.7105 38.6487 51.8257C38.645 52.062 38.6569 52.3712 38.6685 52.6737L39.6677 52.6356Z" fill="#007885"/>
<rect x="48.5" y="33.5" width="3" height="3" rx="1.5" fill="#00BACE" stroke="#007885"/>
<line x1="59.9567" y1="43.4981" x2="36.9567" y2="41.4981" stroke="#007885"/>
<rect x="56.5" y="41.5" width="3" height="3" rx="1.5" fill="#00BACE" stroke="#007885"/>
<circle cx="37" cy="41" r="2.5" fill="#00CC79" stroke="#007885"/>
<line x1="60.1411" y1="43.4797" x2="43.1411" y2="48.4797" stroke="#007885"/>
<circle cx="44" cy="48" r="2.5" fill="#00CC79" stroke="#007885"/>
<line x1="59.5039" y1="42.938" x2="60.5039" y2="34.938" stroke="#007885"/>
<line x1="59.7059" y1="43.4044" x2="48.7059" y2="35.4044" stroke="#007885"/>
<circle cx="59" cy="43" r="2.5" fill="#00CC79" stroke="#007885"/>
<circle cx="60" cy="35" r="2.5" fill="#00CC79" stroke="#007885"/>
<circle cx="50" cy="36" r="2.5" fill="#00CC79" stroke="#007885"/>
</svg>
