<?xml version="1.0" encoding="UTF-8"?>
<svg width="136px" height="70px" viewBox="0 0 136 70" version="1.1" xmlns="http://www.w3.org/2000/svg" xmlns:xlink="http://www.w3.org/1999/xlink">
    <!-- Generator: Sketch 51 (57462) - http://www.bohemiancoding.com/sketch -->
    <title>Group 2 Copy 4</title>
    <desc>Created with Sketch.</desc>
    <defs>
        
    </defs>
    <g id="Homepage-+-Home-Mobile" stroke="none" stroke-width="1" fill="#1b4384" fill-rule="evenodd">
      <path d="M135.932914,31.5052131 L135.930998,31.5052131 C135.892262,35.7596868 136.56036,44.4271724 134.415165,51.5918016 C133.548488,54.5258465 130.153932,64.0859246 120.643472,65.8276744 C115.728401,67.0699199 111.74322,67.7605389 106.605307,68.2687303 C70.2195614,72.0823371 47.1357745,65.0176088 37.7996292,50.9576483 C35.9209069,48.5144207 33.7612382,48.2190617 31.5143059,49.0356426 C30.1099998,49.8652541 28.5169063,50.8316864 26.788022,51.7937751 L26.6041298,51.9436264 L26.6234981,51.902363 C16.1446248,57.8725254 1.41877909,65.3846358 0.014472994,62.7611523 C11.3310773,57.894243 20.6576449,37.9727081 20.6576449,37.9727081 C20.6576449,37.9727081 12.0187573,20.437935 0,16.572206 C2.06282732,13.6989704 13.7621146,19.039323 24.2552481,23.1700064 L24.2320487,23.1504606 L24.5176775,23.3003119 C25.7378786,23.7933009 26.9436067,24.2515419 28.1010205,24.6576606 C31.2582616,25.4677263 32.5076215,26.7599222 36.3863839,20.437935 C45.7225292,5.1574467 68.3800013,-3.92918821 104.620591,1.66091654 C106.024897,1.84768771 107.419413,2.14304678 108.935246,2.34719202 L108.935246,2.38411191 C111.647017,2.95528422 119.680593,4.82516775 126.033811,7.82870888 C133.399075,11.3208955 124.06293,24.7467027 124.06293,24.7467027 C124.06293,24.7467027 113.123901,17.9751616 108.823932,15.7013311 L108.800732,15.7013311 L108.001738,15.2952124 L108.001738,15.2778384 L106.384381,14.5763606 C103.120508,13.0713324 100.098845,11.8334304 97.0676038,10.9864448 C77.4945821,5.06840463 60.9287506,14.213677 59.9650195,31.0882356 C59.0015012,47.9497637 72.6957204,58.521881 93.029,58.0658118 C94.0846772,58.0071744 95.1256685,58.0071744 96.0602408,57.831262 L96.1766633,44.6486917 C96.1815586,43.9993361 96.1913491,43.4281638 96.0847172,42.8830526 C95.5424056,38.4570101 94.2736774,35.9355992 90.8016487,32.3304811 L89.7653398,31.5052131 C89.7653398,31.5052131 126.538663,31.4161711 135.932914,31.5052131 Z" id="path-1"></path>
    </g>
</svg>