<svg width="539" height="173" viewBox="0 0 539 173" fill="none" xmlns="http://www.w3.org/2000/svg">
<rect width="539" height="173" fill="white"/>
<path fill-rule="evenodd" clip-rule="evenodd" d="M119 91.9L128.2 87.1V15.1H121.3L104.3 37.6H102.5L103.5 12.6H177L178 37.6H176L159.4 15H152.3V87L161.5 91.8V94.3H119V91.9ZM188.3 88.7V9L181.2 6V4.6L206.9 0H209.6V37.7L210.3 37.1C216 32.1 224.2 29 232.3 29C243.6 29 248.6 35.3 248.6 47.2V88.7L254.6 92V94.4H221V92L227 88.7V47C227 40.5 224.2 37.9 218.9 37.9C215.642 37.8221 212.459 38.8831 209.9 40.9V88.9L215.9 92.1V94.4H182.3V92L188.3 88.6V88.7ZM275.5 61.2L294.5 60C294.5 43.7 291.8 32.8 286.2 32.8C280.2 32.8 275.5 45.4 275.5 61.2V61.2ZM275.9 64.2C276.6 77.4 282.5 87.6 296.5 87.6C303.2 87.6 308 84.5 312.5 82.1V84.7C309.511 88.349 305.738 91.2777 301.462 93.2686C297.186 95.2595 292.516 96.2614 287.8 96.2C266.1 96.2 255.1 84.2 255.1 63.2C255.1 42.8 267.1 30.2 286.8 30.2C305.2 30.2 314.8 39.3 314.8 63.6V64.2H275.8H275.9ZM0 126.2C0 91.5 23 79.2 48.6 79.2C57.6983 78.9595 66.7685 80.3133 75.4 83.2L75.9 107.5H73.5L58.5 84C55.4518 82.7908 52.1718 82.2783 48.9 82.5C35.3 82.5 28.4 98.2 28.6 124C28.9 154.8 34.2 168.8 46.6 168.8C49.9 168.8 52.4 168.3 54.2 167.6V134.6L45.9 129.8V127.1H85.8V130.1L77.7 134.6V167C68.0413 170.455 57.858 172.214 47.6 172.2C18.5 172.3 0 158.8 0 126.2H0ZM85.4 110V108L112.2 103.3L115.2 103.5V156.3C115.2 162.7 118.2 164.6 123.3 164.6C124.958 164.632 126.602 164.289 128.108 163.596C129.615 162.904 130.945 161.879 132 160.6V113.2L124.7 110V108L151.4 103.2L154.1 103.4V164L161.4 167V169L134.9 172.2L132.2 172V164H131.5C126.147 169.258 119.001 172.295 111.5 172.5C98.5 172.5 92.7 164.9 92.7 153.4V113.3L85.4 110.1V110ZM256.7 103.2L258.9 103.4V122.9H259.5C262.4 108.6 268.7 103.3 276.4 103.3C277.6 103.3 278.9 103.3 279.7 103.8V123.8C272.945 122.536 265.964 123.373 259.7 126.2V164.8L265.7 168.2V170.7H231V168.2L237.2 164.8V112L229.9 109.8V108L256.7 103V103.2Z" fill="#121212"/>
<path fill-rule="evenodd" clip-rule="evenodd" d="M323.9 161.5V108.5C322.2 107.5 320.9 106.1 316.5 106.3C309.3 106.5 304.8 117.4 304.8 136.9C304.8 154.4 308 164.2 317.7 163.9C319.983 163.847 322.176 162.998 323.9 161.5V161.5ZM323.9 104.8V84.2L316.6 81.6V80L343.6 75L346.2 75.4V163.9L353.7 166.6V168.9L327 172.5L325 172.2V165H324.3C320.3 169 315 172.5 306.6 172.5C292 172.5 281.4 161.4 281.4 138.6C281.4 114.6 293.7 102.8 312.4 102.8C317.8 102.8 321.9 103.8 323.9 104.9V104.8ZM385.8 86.5C385.8 93 380.3 97.9 374 97.9C367.4 97.9 362.2 92.9 362.2 86.5C362.2 80 367.4 75 374 75C380.3 75 385.8 80 385.8 86.5ZM383.4 103.1L385.7 103.3V164.8L391.8 168.2V170.7H357.1V168.2L363.3 164.8V113L355.9 110V108L383.4 103V103.1ZM469.6 164.8V112.5L462.2 109.9V107.4L488.9 102.4L491.6 102.7V110.5H492.3C498.648 105.046 506.731 102.033 515.1 102C526.7 102 531.8 107.5 531.8 119.8V164.7L538.1 168.2V170.7H503.3V168.2L509.6 164.8V121C509.6 114.3 506.6 111.6 501.1 111.6C497.798 111.527 494.564 112.547 491.9 114.5V164.8L498.1 168.2V170.7H463.3V168.2L469.6 164.8ZM431 161.5V135L426.6 135.4C419.6 136 417.1 140.4 417.1 150.4C417.1 161 420.6 163.8 425.5 163.8C428.3 163.8 429.8 162.9 431 161.5ZM431 131.9V123.1C431 109.9 428.1 105.6 420 105.6L417.2 105.8L402.7 125.5H400.7V107.4C406.9 105.4 414.7 103.2 425 103.2C442.8 103.2 453.1 108.2 453.1 123V165.8L459.5 167.5V169.2C455.472 171.233 451.012 172.262 446.5 172.2C437.6 172.2 433.5 169.2 431.5 164.5H430.9C427.2 169.5 421.9 172.5 413.6 172.5C403 172.5 395.8 165.8 395.8 154.4C395.8 143.4 402.7 137.4 416.6 134.7L431 131.9V131.9ZM198.8 161.5V135L194.4 135.4C187.4 136 184.9 140.4 184.9 150.4C184.9 161 188.4 163.8 193.3 163.8C196 163.8 197.6 162.9 198.8 161.5ZM198.8 131.9V123.1C198.8 109.9 195.9 105.6 187.8 105.6L185 105.8L170.5 125.5H168.5V107.4C174.7 105.4 182.5 103.2 192.8 103.2C210.6 103.2 220.9 108.2 220.9 123V165.8L227.3 167.5V169.2C223.242 171.249 218.746 172.278 214.2 172.2C205.4 172.2 201.2 169.2 199.2 164.5H198.7C195 169.5 189.7 172.5 181.4 172.5C170.8 172.5 163.6 165.8 163.6 154.4C163.6 143.4 170.5 137.4 184.4 134.7L198.8 131.9Z" fill="#121212"/>
</svg>
