<svg width="140" height="41" viewBox="0 0 140 41" fill="none" xmlns="http://www.w3.org/2000/svg">
<g clip-path="url(#clip0)">
<path d="M0 41V0H28.61V41H0ZM24.47 36.87V4.13H4.12V36.87H24.47Z" fill="black"/>
<path d="M47.6199 18.39H45.8499C43.5299 15.11 41.2199 11.85 38.9199 8.16V18.39H36.9199V4.12H38.6899C41.0099 7.38 43.3199 10.62 45.5999 14.29V4.12H47.5999V18.39H47.6199Z" fill="#231F20"/>
<path d="M52.2598 12.75C52.8298 10.88 53.3998 9.14 53.9098 6.94C54.4798 9.14 54.9898 10.88 55.5198 12.75H52.2598ZM53.1998 4.13L48.2598 18.39H50.3798L51.6198 14.5H55.9198L57.0398 18.39H59.7698L55.2598 4.12H53.2598L53.1998 4.13Z" fill="#231F20"/>
<path d="M62.0898 18.39V6.04001H58.3398V4.13H68.2599V6.04001H64.5099V18.39H62.0598H62.0898Z" fill="#231F20"/>
<path d="M69.0898 18.39V4.12H71.5199V18.39H69.0898Z" fill="#231F20"/>
<path d="M79.05 16.5699C76.5 16.5699 75.6 13.7599 75.6 11.0299C75.6 8.29994 76.6 5.88995 79.05 5.88995C81.5 5.88995 82.5 8.39994 82.5 11.0299C82.5 13.6599 81.6 16.5699 79.05 16.5699ZM79.05 18.5699C82.78 18.5699 85.1 15.25 85.1 10.99C85.1 6.98996 82.53 3.80994 79.05 3.80994C75.57 3.80994 73 6.98996 73 10.99C73 15.31 75.32 18.64 79.05 18.64V18.5699Z" fill="#231F20"/>
<path d="M97.2601 18.39H95.4901C93.1701 15.11 90.8601 11.85 88.5601 8.16V18.39H86.5601V4.12H88.3301C90.6501 7.38 92.9601 10.62 95.2401 14.29V4.12H97.2401V18.39H97.2601Z" fill="#231F20"/>
<path d="M101.93 12.75C102.5 10.88 103.07 9.14 103.58 6.94C104.15 9.14 104.66 10.88 105.19 12.75H101.89H101.93ZM102.87 4.13L97.9399 18.4H100.06L101.3 14.51H105.6L106.72 18.4H109.45L104.91 4.13H102.91H102.87Z" fill="#231F20"/>
<path d="M110.16 4.12H112.59V16.47H117.42V18.39H110.16V4.12Z" fill="#231F20"/>
<path d="M46.1102 30.3301V36.2201C44.8234 36.7634 43.4465 37.0618 42.0502 37.1001C37.8502 37.1001 35.2002 33.8401 35.2002 29.6401C35.2002 25.7501 37.8502 22.3401 42.1302 22.3401C43.3719 22.345 44.5824 22.7288 45.6002 23.4401L44.8102 25.1301C44.0201 24.6577 43.1206 24.3992 42.2002 24.3801C39.5902 24.3801 37.8202 26.4401 37.8202 29.6801C37.8202 32.9201 39.8202 35.0601 41.9602 35.0601C42.5503 35.0855 43.1375 34.9653 43.6702 34.7101V30.3301H46.1202H46.1102Z" fill="#231F20"/>
<path d="M54.8601 24.5001H50.7801V28.4101H54.7801V30.3301H50.7801V34.9401H55.5901V36.8601H48.3301V22.5701H54.8501V24.4901L54.8601 24.5001Z" fill="#231F20"/>
<path d="M62.4001 35.06C59.8501 35.06 58.9601 32.2501 58.9601 29.5201C58.9601 26.7901 59.9601 24.38 62.4001 24.38C64.8401 24.38 65.8501 26.89 65.8501 29.5201C65.8501 32.1501 64.9501 35.06 62.4001 35.06ZM62.4001 37.06C66.1301 37.06 68.4501 33.74 68.4501 29.48C68.4501 25.48 65.8801 22.3 62.4001 22.3C58.9201 22.3 56.3501 25.48 56.3501 29.48C56.3501 33.78 58.6701 37.1 62.4001 37.1V37.06Z" fill="#231F20"/>
<path d="M80.2 30.3301V36.2201C78.9131 36.7631 77.5363 37.0616 76.14 37.1001C71.94 37.1001 69.29 33.8401 69.29 29.6401C69.29 25.7501 71.94 22.3401 76.22 22.3401C77.4618 22.3444 78.6726 22.7282 79.69 23.4401L78.9001 25.1301C78.11 24.6577 77.2104 24.3992 76.29 24.3801C73.68 24.3801 71.91 26.4401 71.91 29.6801C71.91 32.9201 73.91 35.0601 76.05 35.0601C76.6401 35.0855 77.2274 34.9653 77.76 34.7101V30.3301H80.2101H80.2Z" fill="#231F20"/>
<path d="M84.89 24.5001H85.97C86.2778 24.4696 86.5886 24.5085 86.8794 24.6139C87.1702 24.7193 87.4337 24.8886 87.6505 25.1092C87.8673 25.3298 88.0319 25.5962 88.1321 25.8889C88.2324 26.1815 88.2659 26.4928 88.23 26.8001C88.273 27.1398 88.2463 27.4848 88.1516 27.8139C88.0568 28.143 87.8959 28.4493 87.6788 28.7141C87.4617 28.979 87.1928 29.1968 86.8887 29.3543C86.5846 29.5118 86.2516 29.6056 85.91 29.6301L84.91 29.6901V24.4901L84.89 24.5001ZM91.09 36.8501L88.26 30.9401C89.0151 30.5209 89.643 29.9058 90.0778 29.1595C90.5125 28.4133 90.7378 27.5636 90.73 26.7001C90.73 23.9301 89.04 22.5801 86.31 22.5801H82.5V36.8501H84.95V31.4701H86.05L88.35 36.8501H91.14H91.09Z" fill="#231F20"/>
<path d="M95.1204 31.2101C95.6904 29.3401 96.2604 27.6001 96.7704 25.4001C97.3404 27.6001 97.8504 29.3301 98.3804 31.2101H95.0804H95.1204ZM96.0604 22.5701L91.1304 36.8401H93.2604L94.5004 32.9501H98.8004L99.9204 36.8401H102.65L98.1004 22.5701H96.1004H96.0604Z" fill="#231F20"/>
<path d="M107.26 22.5701H103.45V36.8401H105.9V31.4701H107C107.624 31.4743 108.242 31.3531 108.819 31.1139C109.395 30.8746 109.917 30.5222 110.354 30.0773C110.792 29.6324 111.135 29.1043 111.365 28.5242C111.594 27.944 111.705 27.3238 111.69 26.7001C111.65 23.9301 109.96 22.5701 107.26 22.5701ZM106.91 29.6201L105.91 29.6801V24.4901H107.01C107.316 24.4628 107.625 24.504 107.913 24.6109C108.201 24.7177 108.462 24.8874 108.677 25.1077C108.891 25.3279 109.054 25.5932 109.153 25.8842C109.252 26.1752 109.286 26.4847 109.25 26.7901C109.296 27.1353 109.27 27.4864 109.174 27.821C109.077 28.1557 108.913 28.4668 108.69 28.7346C108.467 29.0024 108.191 29.2211 107.88 29.377C107.568 29.5328 107.228 29.6224 106.88 29.6401L106.91 29.6201Z" fill="#231F20"/>
<path d="M122.99 36.8501H120.54V29.9801H115.46V36.8501H113.03V22.5701H115.46V28.0501H120.54V22.6101H122.99V36.8401V36.8501Z" fill="#231F20"/>
<path d="M125.33 36.8501V22.5701H127.76V36.8401H125.33V36.8501Z" fill="#231F20"/>
<path d="M138.77 25.1701C138.016 24.6939 137.151 24.4216 136.26 24.3801C133.77 24.3801 131.96 26.4401 131.96 29.6801C131.96 32.9201 133.96 35.0601 136.32 35.0601C137.187 35.0575 138.036 34.8115 138.77 34.3501L139.44 36.1201C138.48 36.744 137.365 37.0901 136.22 37.1201C132.02 37.1201 129.37 33.8601 129.37 29.6601C129.37 25.7701 132 22.3601 136.26 22.3601C137.438 22.3968 138.579 22.7794 139.54 23.4601L138.77 25.1701Z" fill="#231F20"/>
</g>
<defs>
<clipPath id="clip0">
<rect width="139.54" height="41" fill="white"/>
</clipPath>
</defs>
</svg>
