<svg width="184" height="25" viewBox="0 0 184 25" fill="none" xmlns="http://www.w3.org/2000/svg">
<g clip-path="url(#clip0)">
<path d="M13.8 2.90002C13.8 0.900024 11.9 0.400024 10.4 0.400024V0.700024C11.3 0.700024 12 1.00002 12 1.70002C12 2.10002 11.7 2.70002 10.8 2.70002C10.1 2.70002 8.6 2.30002 7.5 1.90002C6.2 1.40002 5 1.00002 4 1.00002C2 1.00002 0.6 2.50002 0.6 4.20002C0.6 5.70002 1.7 6.20002 2.1 6.40002L2.2 6.20002C2 6.00002 1.7 5.80002 1.7 5.20002C1.7 4.80002 2.1 4.10002 3.1 4.10002C4 4.10002 5.2 4.50002 6.8 5.00002C8.2 5.40002 9.7 5.70002 10.5 5.80002V8.90002L9 10.2V10.3L10.5 11.6V15.9C9.7 16.4 8.8 16.5 8 16.5C6.5 16.5 5.2 16.1 4.1 14.9L8.2 12.9V6.00002L3.2 8.20002C3.6 6.90002 4.7 6.00002 5.8 5.40002L5.7 5.10002C2.7 5.90002 0 8.70003 0 12.1C0 16.1 3.3 19.1 7 19.1C11 19.1 13.6 15.9 13.6 12.6H13.4C12.8 13.9 11.9 15.1 10.8 15.7V11.6L12.4 10.3V10.2L10.8 8.90002V5.80002C12.3 5.80002 13.8 4.80002 13.8 2.90002ZM5.1 13.9L3.9 14.5C3.2 13.6 2.8 12.4 2.8 10.7C2.8 10 2.8 9.20003 3 8.60003L5.1 7.70002V13.9V13.9ZM15.7 16.2L14.4 17.2L14.6 17.4L15.2 16.9L17.4 18.9L20.4 16.9L20.3 16.7L19.5 17.2L18.5 16.2V9.40002L19.3 8.80002L21 10.2V16.3C21 20.1 20.2 20.7 18.5 21.3V21.6C21.3 21.7 23.9 20.8 23.9 15.9V9.30002L24.8 8.60003L24.6 8.40002L23.8 9.00002L21.3 6.90002L18.5 9.00002V0.800024H18.3L14.8 3.20002V3.40002C15.2 3.60002 15.8 3.80002 15.8 4.90002L15.7 16.2V16.2ZM34 15.1L31.5 17L29 15V13.8L33.7 10.6V10.5L31.3 6.90002L26.1 9.70002V16.3L25.1 17.1L25.3 17.3L26.2 16.6L29.6 19.1L34.1 15.5L34 15.1V15.1ZM29 13.4V8.50002L29.2 8.40002L31.4 11.9L29 13.4ZM53.1 2.00002C53.1 1.70002 53 1.40002 52.9 1.10002H52.7C52.4 1.90002 52 2.30002 51 2.30002C50.1 2.30002 49.5 1.80002 49.1 1.40002L46.2 4.70002L46.4 4.90002L47.4 4.00002C48 4.50002 48.5 4.90002 49.9 5.00002V13.3L44 3.20002C43.5 2.40002 42.8 1.30002 41.4 1.30002C39.8 1.30002 38.4 2.70002 38.6 4.90002H38.9C39 4.30002 39.3 3.60002 40 3.60002C40.5 3.60002 41 4.10002 41.3 4.60002V7.90002C39.5 7.90002 38.3 8.70002 38.3 10.2C38.3 11 38.7 12.2 39.9 12.5V12.3C39.7 12.1 39.6 11.9 39.6 11.6C39.6 11.1 40 10.7 40.7 10.7H41.2V14.9C39.1 14.9 37.4 16.1 37.4 18.1C37.4 20 39 20.9 40.8 20.8V20.6C39.7 20.5 39.2 20 39.2 19.3C39.2 18.4 39.8 18 40.6 18C41.4 18 42.1 18.5 42.6 19.1L45.5 15.9L45.3 15.7L44.6 16.5C43.5 15.5 42.9 15.2 41.6 15V5.00002L49.6 19H50.2V5.00002C51.7 4.90002 53.1 3.70002 53.1 2.00002V2.00002ZM60.4 15.1L57.9 17L55.4 15V13.8L60.1 10.6V10.5L57.7 6.90002L52.5 9.70002V16.3L51.5 17.1L51.7 17.3L52.6 16.6L56 19.1L60.5 15.5L60.4 15.1V15.1ZM55.4 13.4V8.50002L55.6 8.40002L57.8 11.9L55.4 13.4V13.4ZM76.7 8.00002L76 8.50002L74.1 6.90002L71.9 8.90002L72.8 9.80002V17.3L70.4 15.8V9.60003L71.2 9.10003L68.9 6.90002L66.7 8.90002L67.6 9.80002V17L67.3 17.2L65.2 15.7V9.70002C65.2 8.30002 64.5 7.90002 63.7 7.40002C63 6.90002 62.6 6.60002 62.6 5.90002C62.6 5.30002 63.2 5.00002 63.5 4.80002V4.60002C62.7 4.60002 60.6 5.40002 60.6 7.30002C60.6 8.30002 61.1 8.70002 61.6 9.20002C62.1 9.70002 62.6 10.1 62.6 11V16.8L61.5 17.6L61.7 17.8L62.7 17L65 19L67.5 17.3L70.3 19L75.6 15.9V9.20002L76.9 8.20002L76.7 8.00002V8.00002ZM95.3 2.50002L94.3 3.40002L92.1 1.40002L88.8 3.80002V1.60002H88.5L88.6 17.8C88.3 17.8 87.4 17.6 86.7 17.4L86.5 3.90002C86.5 2.90002 85.8 1.50002 84 1.50002C82.2 1.50002 81 2.90002 81 4.30002H81.3C81.4 3.70002 81.7 3.20002 82.3 3.20002C82.9 3.20002 83.4 3.60002 83.4 4.90002V8.80002C81.6 8.90002 80.5 9.90002 80.5 11.2C80.5 12 80.9 13.2 82.1 13.2V13C81.7 12.8 81.6 12.5 81.6 12.3C81.6 11.7 82.1 11.5 82.9 11.5H83.3V17.7C81.8 18.2 81.2 19.3 81.2 20.5C81.2 22.2 82.5 23.4 84.5 23.4C85.9 23.4 87.1 23.2 88.3 22.9C89.3 22.7 90.6 22.4 91.2 22.4C92 22.4 92.3 22.8 92.3 23.3C92.3 24 92 24.3 91.6 24.4V24.6C93.2 24.3 94.2 23.3 94.2 21.8C94.2 20.3 92.7 19.4 91.1 19.4C90.3 19.4 88.6 19.7 87.4 19.9C86 20.2 84.6 20.4 84.2 20.4C83.5 20.4 82.7 20.1 82.7 19.1C82.7 18.3 83.4 17.6 85.1 17.6C86 17.6 87.1 17.7 88.2 18C89.4 18.3 90.5 18.6 91.5 18.6C93 18.6 94.3 18.1 94.3 16V3.70002L95.5 2.70002L95.3 2.50002V2.50002ZM91.2 8.60003C90.9 8.90003 90.5 9.20002 90 9.20002C89.5 9.20002 89 8.90003 88.8 8.60003V4.20002L89.8 3.50002L91.2 4.80002V8.60003ZM91.2 11.6C91 11.4 90.5 11.1 90 11.1C89.5 11.1 89 11.4 88.8 11.6V9.00002C89 9.20002 89.5 9.50002 90 9.50002C90.5 9.50002 91 9.20002 91.2 9.00002V11.6ZM91.2 16.3C91.2 17.1 90.7 17.9 89.6 17.9H88.8V12C89 11.8 89.5 11.5 90 11.5C90.5 11.5 90.9 11.8 91.2 12V16.3V16.3ZM104.9 9.20002L101.7 6.90002L96.8 9.70002V16.2L95.8 17L95.9 17.2L96.7 16.6L99.9 19L104.9 16V9.20002V9.20002ZM99.5 15.5V8.30002L102 10.1V17.2L99.5 15.5V15.5ZM114.4 7.10002H114.2C113.9 7.30002 113.6 7.50002 113.3 7.50002C112.9 7.50002 112.4 7.30002 112.2 7.00002H112L110.3 8.90002L108.6 7.00002L105.6 9.00002L105.7 9.20002L106.5 8.70002L107.5 9.80002V16.1L106.2 17.1L106.4 17.3L107 16.8L109.4 18.8L112.5 16.7L112.4 16.5L111.5 17L110.3 16V9.00002C110.8 9.50002 111.4 10 112.1 10C113.5 10.1 114.3 8.70002 114.4 7.10002V7.10002ZM126.4 16.7L123 19L118.4 12L121.7 6.90002H121.9C122.3 7.30002 122.9 7.70002 123.6 7.70002C124.3 7.70002 124.8 7.30002 125.1 6.90002H125.3C125.2 8.90002 123.8 10.1 122.8 10.1C121.8 10.1 121.3 9.60002 120.7 9.30002L120.4 9.80002L125.4 17.2L126.4 16.6V16.7V16.7ZM115.4 16.2L114.1 17.2L114.3 17.4L114.9 16.9L117.1 18.9L120.1 16.9L119.9 16.7L119.1 17.2L118.1 16.2V0.800024H118L114.4 3.20002V3.40002C114.8 3.60002 115.4 3.70002 115.4 4.90002V16.2V16.2ZM143 2.90002C143 0.900024 141.1 0.400024 139.6 0.400024V0.700024C140.5 0.700024 141.2 1.00002 141.2 1.70002C141.2 2.10002 140.9 2.70002 140 2.70002C139.3 2.70002 137.8 2.30002 136.7 1.90002C135.4 1.50002 134.2 1.10002 133.2 1.10002C131.2 1.10002 129.8 2.60002 129.8 4.30002C129.8 5.80002 130.9 6.30002 131.3 6.50002L131.4 6.30002C131.1 6.10002 130.8 5.90002 130.8 5.30002C130.8 4.90002 131.2 4.20002 132.2 4.20002C133.1 4.20002 134.3 4.60002 135.9 5.10002C137.3 5.50002 138.8 5.80002 139.6 5.90002V9.00002L138.1 10.3V10.4L139.6 11.7V16C138.8 16.5 137.9 16.6 137.1 16.6C135.6 16.6 134.3 16.2 133.2 15L137.3 13V6.00002L132.3 8.20002C132.8 6.90002 133.9 6.00002 134.9 5.30002L134.8 5.10002C131.8 5.90002 129.1 8.60002 129.1 12C129.1 16 132.4 19 136.1 19C140.1 19 142.7 15.8 142.7 12.5H142.5C141.9 13.8 141 15 139.9 15.6V11.5L141.5 10.2V10.1L140 8.80002V5.80002C141.5 5.80002 143 4.80002 143 2.90002V2.90002ZM134.3 13.9L133.1 14.5C132.4 13.6 132 12.4 132 10.7C132 10 132.1 9.20003 132.3 8.60003L134.4 7.70002L134.3 13.9V13.9ZM146.5 1.90002H146.4L144.4 3.60002V3.70002L146.1 5.60002H146.3L148.3 3.90002V3.80002L146.5 1.90002V1.90002ZM149.5 16.7L148.7 17.2L147.7 16.2V9.30002L148.7 8.60003L148.5 8.40002L147.8 9.00002L146 6.90002L143.1 8.90002L143.3 9.20002L144 8.70002L144.9 9.80002V16.3L143.6 17.3L143.7 17.5L144.4 17L146.6 19L149.6 17L149.5 16.7V16.7ZM166.2 16.6L165.5 17.1L164.4 16.1V9.30002L165.4 8.50002L165.2 8.30002L164.4 9.00002L162.1 6.90002L159.1 9.00002L156.8 6.90002L154 9.00002L152.2 6.90002L149.3 8.90002L149.4 9.20002L150.1 8.70002L151.1 9.80002V16.3L150.3 17.1L152.6 19L154.8 17L153.9 16.1V9.30002L154.8 8.70002L156.3 10.1V16.1L155.5 16.9L157.8 18.8L160 16.8L159.1 15.9V9.30002L159.9 8.80002L161.5 10.2V16.2L160.8 16.9L163.1 19L166.2 16.9V16.6V16.6ZM174.9 15.1L172.4 17L169.9 15V13.8L174.6 10.6V10.5L172.2 6.90002L167 9.70002V16.5L170.5 19L175 15.4L174.9 15.1V15.1ZM169.9 13.4V8.50002L170.1 8.40002L172.3 11.9L169.9 13.4V13.4ZM184 12.5L182.1 11C183.4 9.90002 183.9 8.40002 183.9 7.40002V6.80002H183.7C183.5 7.30002 183.1 7.80002 182.3 7.80002C181.5 7.80002 181 7.40002 180.5 6.80002L176 9.30002V12.9L177.7 14.2C176 15.7 175.7 16.7 175.7 17.5C175.7 18.5 176.2 19.2 177 19.5L177.1 19.3C176.9 19.1 176.7 19 176.7 18.5C176.7 18.2 177.1 17.7 177.9 17.7C178.9 17.7 179.5 18.4 179.8 18.7L184.1 16.1V12.5H184V12.5ZM182.9 9.50002C182.2 10.7 180.7 11.9 179.8 12.5L178.7 11.6V8.10002C179.1 9.10002 180.2 9.90002 181.3 9.90002C182 9.90002 182.4 9.80002 182.9 9.50002V9.50002ZM181.2 17.5C180.7 16.4 179.5 15.6 178.3 15.6C178 15.6 177.2 15.6 176.4 16.1C176.9 15.3 178.2 13.9 179.9 12.9L181.1 13.9L181.2 17.5V17.5Z" fill="black"/>
</g>
<defs>
<clipPath id="clip0">
<rect width="184" height="25" fill="white"/>
</clipPath>
</defs>
</svg>
