<?xml version="1.0" encoding="UTF-8"?>
<svg width="35px" height="36px" viewBox="-10 -10 55 56" version="1.1" xmlns="http://www.w3.org/2000/svg" xmlns:xlink="http://www.w3.org/1999/xlink">
    <!-- Generator: Sketch 46.2 (44496) - http://www.bohemiancoding.com/sketch -->
    <rect x="-10" y="-10" width="66" height="67" fill="#111e32"></rect>
    <g id="Main" stroke="none" stroke-width="1" fill="none" fill-rule="evenodd">
        <path d="M34.2739229,13.1466122 C33.8613113,10.9234286 24.2339534,9.29608163 18.2459467,9.15428571 L18.2459467,5.004 C19.1585377,4.60359184 19.7987464,3.6844898 19.7987464,2.61183673 C19.7987464,1.17036735 18.641672,0 17.2129495,0 C15.7878979,0 14.6308235,1.17036735 14.6308235,2.61183673 C14.6308235,3.6844898 15.2717664,4.60359184 16.1799523,5.004 L16.1799523,9.16677551 C10.1713885,9.37322449 0.992617092,10.9763265 0.592486681,13.1466122 C0.160052164,15.470449 0,21.312 0,27.0404082 C0,32.0164898 8.75441287,35.2638367 17.4332048,35.2638367 C26.1075916,35.2638367 34.8664095,32.0164898 34.8664095,27.0404082 C34.8664095,21.3105306 34.7019523,15.4697143 34.2739229,13.1466122 Z M3.76709933,24.2265306 C3.76709933,20.9806531 6.36904828,18.3475102 9.57523085,18.3475102 C12.7858185,18.3475102 15.3877675,20.9806531 15.3877675,24.2265306 C15.3877675,27.4738776 12.7858185,30.105551 9.57523085,30.105551 C6.36904828,30.105551 3.76709933,27.4738776 3.76709933,24.2265306 Z M21.8963108,32.8393469 C21.8206898,32.8797551 20.0828757,33.8150204 17.4207236,33.8150204 C14.7549007,33.8150204 13.0376437,32.8797551 12.9656937,32.8393469 C12.46498,32.5594286 12.281434,31.9239184 12.5574872,31.418449 C12.8298696,30.914449 13.4539262,30.7285714 13.9546398,31.005551 C13.9906149,31.0209796 15.3312353,31.725551 17.4207236,31.725551 C19.5307691,31.725551 20.8956176,31.0077551 20.9117697,31.005551 C21.4117492,30.7300408 22.0402109,30.9151837 22.3125932,31.4257959 C22.5805705,31.932 22.3970244,32.5682449 21.8963108,32.8393469 Z M25.2867736,30.105551 C22.0761859,30.105551 19.474237,27.4738776 19.474237,24.2265306 C19.474237,20.9806531 22.0761859,18.3475102 25.2867736,18.3475102 C28.4973613,18.3475102 31.0993102,20.9806531 31.0993102,24.2265306 C31.0993102,27.4738776 28.4973613,30.105551 25.2867736,30.105551 Z M10.8681293,26.8383673 C10.1559706,26.8383673 9.57523085,26.2513469 9.57523085,25.5357551 C9.57523085,24.8142857 10.1559706,24.2272653 10.8681293,24.2272653 C11.5810222,24.2272653 12.1610277,24.8142857 12.1610277,25.5357551 C12.1610277,26.2513469 11.5810222,26.8383673 10.8681293,26.8383673 Z M9.57523085,20.3076735 C7.44169145,20.3076735 5.70461154,22.0643265 5.70461154,24.2265306 C5.70461154,26.3887347 7.44169145,28.1468571 9.57523085,28.1468571 C11.7124412,28.1468571 13.4502553,26.3887347 13.4502553,24.2265306 C13.4502553,22.0643265 11.7124412,20.3076735 9.57523085,20.3076735 L9.57523085,20.3076735 Z M26.607571,26.8383673 C25.8954123,26.8383673 25.3146726,26.2513469 25.3146726,25.5357551 C25.3146726,24.8142857 25.8954123,24.2272653 26.607571,24.2272653 C27.3204639,24.2272653 27.9004695,24.8142857 27.9004695,25.5357551 C27.8997353,26.2513469 27.3197297,26.8383673 26.607571,26.8383673 Z M21.4433191,24.2265306 C21.4433191,26.3887347 23.180399,28.1468571 25.3139384,28.1468571 C27.4511487,28.1468571 29.1889628,26.3887347 29.1889628,24.2265306 C29.1889628,22.0643265 27.4518829,20.3076735 25.3139384,20.3076735 C23.180399,20.3076735 21.4433191,22.0643265 21.4433191,24.2265306 Z" id="logo-small-white" fill="#FFFFFF" fill-rule="nonzero"></path>
    </g>
</svg>