<svg width="250" height="35" viewBox="0 0 250 35" fill="none" xmlns="http://www.w3.org/2000/svg">
<path fill-rule="evenodd" clip-rule="evenodd" d="M249.999 10.341V10.384H249.111V10.341C249.221 10.26 249.286 10.239 249.286 10.082V8.95897L248.644 10.406H248.63L247.989 8.95897V10.082C247.989 10.239 248.054 10.26 248.169 10.341V10.384H247.581V10.341C247.694 10.26 247.755 10.239 247.755 10.082V9.01797C247.755 8.86297 247.694 8.83997 247.581 8.75997V8.72197H248.451L248.807 9.53697L249.177 8.72197H249.999V8.75997C249.885 8.83997 249.825 8.86297 249.825 9.01797V10.082C249.825 10.239 249.885 10.26 249.999 10.341ZM246.937 8.92697H246.777V10.071C246.777 10.233 246.856 10.265 246.969 10.341V10.384H246.043V10.341C246.156 10.265 246.234 10.233 246.234 10.071V8.92697H246.081C245.83 8.92697 245.742 9.18097 245.612 9.40097H245.552L245.624 8.70597C245.661 8.71197 245.694 8.72197 245.77 8.72197H247.247C247.319 8.72197 247.357 8.71197 247.389 8.70597L247.46 9.40097H247.394C247.259 9.18097 247.182 8.92697 246.937 8.92697ZM243.26 16.387C242.171 16.387 241.011 15.957 240.794 15.383C241.41 14.808 241.954 14.056 241.954 12.656C241.954 11.151 241.122 10.254 239.673 10.254C237.208 10.254 235.976 13.589 235.976 17.284C235.976 21.623 237.824 24.313 241.122 24.313C243.113 24.313 244.672 23.666 245.939 21.228L246.736 21.479C245.686 25.21 242.715 27.289 238.658 27.289C233.548 27.289 229.418 24.097 229.418 18.108C229.418 12.656 233.657 8.78297 239.527 8.78297C243.113 8.78297 246.484 10.326 246.484 13.338C246.484 15.562 244.708 16.387 243.26 16.387ZM224.67 6.91797C222.643 6.91797 221.121 5.41197 221.121 3.47497C221.121 1.50297 222.643 -0.00402832 224.67 -0.00402832C226.7 -0.00402832 228.258 1.50297 228.258 3.47497C228.258 5.41197 226.7 6.91797 224.67 6.91797ZM227.896 22.806C227.896 25.173 228.221 25.496 229.78 26.572V26.931H219.708V26.572C221.266 25.496 221.592 25.173 221.592 22.806V13.266C221.592 10.9 220.976 10.506 219.418 9.50097V9.14197H227.896V22.806ZM209.056 26.572C210.612 25.496 210.941 25.173 210.941 22.806V15.705C210.941 13.876 210.144 12.692 208.404 12.692C206.592 12.692 205.215 14.092 205.215 17.391V22.806C205.215 25.173 205.542 25.496 207.099 26.572V26.931H197.028V26.572C198.586 25.496 198.912 25.173 198.912 22.806V4.19297C198.912 1.82597 198.186 1.39597 196.591 0.426972V0.0689717H205.215V13.697C206.338 10.506 208.511 8.78297 211.337 8.78297C215.505 8.78297 217.244 11.617 217.244 15.024V22.806C217.244 25.173 217.569 25.496 219.128 26.572V26.931H209.056V26.572ZM189.31 27.289C186.193 27.289 184.309 25.818 183.366 23.953V30.517C183.366 32.883 184.057 33.207 185.975 34.283V34.641H175.18V34.283C176.737 33.207 177.063 32.883 177.063 30.517V13.266C177.063 10.9 176.448 10.506 174.889 9.50097V9.14197H183.224L183.366 13.301C184.202 10.684 186.555 8.78297 189.961 8.78297C194.129 8.78297 197.751 11.544 197.751 17.713C197.751 23.775 194.02 27.289 189.31 27.289ZM187.317 11.653C184.927 11.653 183.366 14.056 183.366 17.247V19.794C183.366 22.662 185.106 25.137 187.317 25.137C189.781 25.137 191.049 22.806 191.049 17.749C191.049 13.912 189.817 11.653 187.317 11.653ZM176.085 25.998V26.392C175.289 26.679 173.658 27.218 171.809 27.218C168.912 27.218 167.535 26.392 167.062 23.595C166.337 25.926 164.201 27.289 161.122 27.289C158.259 27.289 155.758 25.818 155.758 22.769C155.758 18.753 160.071 17.605 164.165 16.853L166.953 16.351V13.84C166.953 11.868 166.484 10.326 164.201 10.326C162.57 10.326 161.701 11.115 161.701 12.656C161.701 14.019 162.317 14.45 162.933 14.737C162.461 15.418 160.904 15.848 159.853 15.848C157.896 15.848 156.665 14.808 156.665 13.159C156.665 10.54 159.636 8.78297 164.636 8.78297C170.359 8.78297 173.223 10.684 173.223 15.024C173.223 16.817 173.114 19.435 173.114 22.195C173.114 24.707 173.766 25.424 176.085 25.998ZM166.953 17.713L165.216 18.144C162.861 18.718 161.882 19.614 161.882 21.694C161.882 23.272 162.607 24.277 164.056 24.277C165.977 24.277 166.953 22.699 166.953 19.937V17.713ZM150.434 13.41C148.585 13.41 147.027 15.06 147.027 18.323V22.627C147.027 24.993 148.186 25.353 150.397 26.5V26.931H138.84V26.572C140.398 25.496 140.722 25.173 140.722 22.806V13.266C140.722 10.966 140.139 10.528 138.674 9.58197C138.712 9.77297 138.732 9.97297 138.732 10.182C138.732 12.011 137.173 12.765 135.905 12.765C135.905 11.438 135.433 10.289 133.985 10.289C133.333 10.289 132.933 10.433 132.462 10.72C133.659 11.761 134.274 13.123 134.274 14.628C134.274 17.892 131.339 20.475 126.121 20.475C124.599 20.475 123.26 20.26 122.137 19.866C121.448 20.224 120.977 20.761 120.977 21.372C120.977 22.053 121.482 22.699 122.68 22.699H129.889C134.093 22.699 136.992 24.707 136.992 28.294C136.992 33.098 131.557 35 126.23 35C121.265 35 116.447 33.996 116.447 30.984C116.447 29.297 117.933 28.185 121.156 28.042C118.948 27.504 117.607 26.069 117.607 23.81C117.607 21.623 119.093 20.188 121.194 19.435C119.093 18.395 117.969 16.637 117.969 14.628C117.969 11.365 120.905 8.78297 126.121 8.78297C128.368 8.78297 130.18 9.24997 131.557 10.073C132.462 8.78297 133.803 7.45697 135.76 7.45697C137.151 7.45697 138.156 8.11397 138.548 9.14897V9.14197H146.883L147.027 14.701C147.751 11.509 149.274 8.78297 152.571 8.78297C154.818 8.78297 156.157 10.36 156.157 12.369C156.157 14.701 154.78 16.064 153.041 16.565C153.041 14.844 152.354 13.41 150.434 13.41ZM120.94 30.517C120.94 32.562 123.367 33.494 126.23 33.494C129.528 33.494 132.173 32.381 132.173 30.589C132.173 29.01 131.122 28.436 128.911 28.436H121.919C121.156 29.082 120.94 29.692 120.94 30.517ZM126.121 10.146C124.637 10.146 124.093 11.365 124.093 14.628C124.093 17.892 124.637 19.076 126.121 19.076C127.606 19.076 128.151 17.892 128.151 14.628C128.151 11.365 127.606 10.146 126.121 10.146ZM107.789 27.289C102.389 27.289 97.897 23.632 97.897 18.037C97.897 12.442 102.389 8.78297 107.789 8.78297C113.187 8.78297 117.68 12.442 117.68 18.037C117.68 23.632 113.187 27.289 107.789 27.289ZM107.789 10.36C105.361 10.36 104.565 12.656 104.565 18.037C104.565 23.416 105.361 25.711 107.789 25.711C110.215 25.711 111.014 23.416 111.014 18.037C111.014 12.656 110.215 10.36 107.789 10.36ZM98.805 26.931H88.73V26.572C90.289 25.496 90.615 25.173 90.615 22.806V15.705C90.615 13.876 89.818 12.692 88.079 12.692C86.267 12.692 84.89 14.092 84.89 17.391V22.806C84.89 25.173 85.218 25.496 86.774 26.572V26.931H76.702V26.572C76.743 26.544 76.779 26.518 76.818 26.491C75.954 26.787 74.478 27.218 72.825 27.218C69.926 27.218 68.551 26.392 68.078 23.595C67.355 25.926 65.217 27.289 62.136 27.289C59.274 27.289 56.774 25.818 56.774 22.769C56.774 18.753 61.087 17.605 65.179 16.853L67.971 16.351V13.84C67.971 11.868 67.498 10.326 65.217 10.326C63.587 10.326 62.718 11.115 62.718 12.656C62.718 14.019 63.332 14.45 63.949 14.737C63.477 15.418 61.919 15.848 60.869 15.848C58.913 15.848 57.68 14.808 57.68 13.159C57.68 10.54 60.651 8.78297 65.652 8.78297C71.376 8.78297 74.238 10.684 74.238 15.024C74.238 16.817 74.129 19.435 74.129 22.195C74.129 24.707 74.782 25.424 77.101 25.998V26.291C78.314 25.42 78.584 24.953 78.584 22.806V13.266C78.584 10.9 77.971 10.506 76.412 9.50097V9.14197H84.745L84.89 13.697C86.014 10.506 88.187 8.78297 91.013 8.78297C95.179 8.78297 96.92 11.617 96.92 15.024V22.806C96.92 25.173 97.246 25.496 98.805 26.572V26.931ZM67.971 17.713L66.23 18.144C63.876 18.718 62.898 19.614 62.898 21.694C62.898 23.272 63.622 24.277 65.072 24.277C66.991 24.277 67.971 22.699 67.971 19.937V17.713ZM50.145 24.348C52.464 24.348 54.167 23.632 55.469 21.191L56.267 21.443C55.182 25.21 52.101 27.289 47.898 27.289C42.608 27.289 38.334 24.169 38.334 18.037C38.334 12.405 42.644 8.78297 48.006 8.78297C53.733 8.78297 56.702 12.154 56.702 17.749H44.89C44.89 21.587 46.846 24.348 50.145 24.348ZM50.47 16.028C50.434 13.195 50.072 10.36 47.971 10.36C45.868 10.36 45.144 12.907 44.963 16.028H50.47ZM31.992 24.313C33.985 24.313 35.544 23.666 36.812 21.228L37.609 21.479C36.558 25.21 33.587 27.289 29.528 27.289C24.419 27.289 20.29 24.097 20.29 18.108C20.29 12.656 24.529 8.78297 30.397 8.78297C33.985 8.78297 37.355 10.326 37.355 13.338C37.355 15.562 35.579 16.387 34.13 16.387C33.042 16.387 31.884 15.957 31.665 15.383C32.282 14.808 32.823 14.056 32.823 12.656C32.823 11.151 31.992 10.254 30.543 10.254C28.079 10.254 26.847 13.589 26.847 17.284C26.847 21.623 28.694 24.313 31.992 24.313ZM9.89 27.289C4.493 27.289 0 23.632 0 18.037C0 12.442 4.493 8.78297 9.89 8.78297C15.289 8.78297 19.783 12.442 19.783 18.037C19.783 23.632 15.289 27.289 9.89 27.289ZM9.89 10.36C7.464 10.36 6.667 12.656 6.667 18.037C6.667 23.416 7.464 25.711 9.89 25.711C12.32 25.711 13.115 23.416 13.115 18.037C13.115 12.656 12.32 10.36 9.89 10.36Z" fill="black"/>
</svg>
